<?xml version="1.0" encoding="UTF-8"?>
<svg width="1200pt" height="1200pt" version="1.1" viewBox="0 0 1200 1200" xmlns="http://www.w3.org/2000/svg">
 <g fill="#d8df35">
  <path d="m452.34 56.25v339.75c40.125 0 72.75 32.625 72.75 72.75s-32.625 72.75-72.75 72.75v117.38c5.25-1.6875 10.875-2.625 16.5-2.625 30.938 0 56.25 25.312 56.25 56.25s-25.312 56.25-56.25 56.25c-5.625 0-11.25-0.9375-16.5-2.625v377.62l543.75-543.75zm63.375 815.62c-20.812 0-37.5-16.875-37.5-37.5s16.688-37.5 37.5-37.5c20.625 0 37.5 16.875 37.5 37.5s-16.875 37.5-37.5 37.5zm136.69-150.38c-23.062 0-41.812-18.75-41.812-41.812s18.75-41.812 41.812-41.812c23.25 0 42 18.75 42 41.812s-18.75 41.812-42 41.812z"/>
  <path d="m316.41 304.69c0 20.711-16.789 37.5-37.5 37.5s-37.5-16.789-37.5-37.5 16.789-37.5 37.5-37.5 37.5 16.789 37.5 37.5"/>
  <path d="m506.34 468.75c0 29.824-24.176 54-54 54s-54-24.176-54-54 24.176-54 54-54 54 24.176 54 54"/>
  <path d="m302.34 625.78c0 12.945-10.492 23.438-23.438 23.438s-23.438-10.492-23.438-23.438 10.492-23.438 23.438-23.438 23.438 10.492 23.438 23.438"/>
  <path d="m386.72 750c0 16.828-13.641 30.469-30.469 30.469s-30.469-13.641-30.469-30.469 13.641-30.469 30.469-30.469 30.469 13.641 30.469 30.469"/>
  <path d="m278.91 871.88c0 20.711-16.789 37.5-37.5 37.5s-37.5-16.789-37.5-37.5 16.789-37.5 37.5-37.5 37.5 16.789 37.5 37.5"/>
  <path d="m468.84 750c20.625 0 37.5-16.875 37.5-37.5s-16.875-37.5-37.5-37.5c-6 0-11.438 1.3125-16.5 3.9375-12.375 6-21 18.938-21 33.562s8.625 27.562 21 33.562c5.0625 2.625 10.5 3.9375 16.5 3.9375z"/>
  <path d="m395.29 884.4c0 13.793-11.184 24.977-24.977 24.977s-24.977-11.184-24.977-24.977c0-13.793 11.184-24.973 24.977-24.973s24.977 11.18 24.977 24.973"/>
 </g>
</svg>
