<?xml version="1.0" encoding="UTF-8"?>
<svg width="1200pt" height="1200pt" version="1.1" viewBox="0 0 1200 1200" xmlns="http://www.w3.org/2000/svg">
 <g fill="#de3484">
  <path d="m1147 1085.4h-107.7v-16.598c11.484 2.9648 22.234 4.4766 32.004 4.4766h0.035156c21.602 0 39.133-7.0547 52.117-20.93 25.934-27.73 23.23-72.719 23.074-74.629-0.26562-4.1172-2.7969-7.7031-6.5898-9.3477-0.875-0.40625-22.02-9.457-46.477-9.457-15.863 0-37.859 3.9609-54.156 22.43v-20.27c27.406-5.1953 48.227-29.293 48.227-58.223v-20.746c8.3281-4.8945 13.945-13.922 13.945-24.254 0-15.551-12.648-28.199-28.164-28.199h-1.8477v-23.281c0-6.0703-4.9453-11.016-11.027-11.016-6.0859 0-11.016 4.9453-11.016 11.016v23.281h-42.277v-23.281c0-6.0703-4.9336-11.016-11.016-11.016-6.0859 0-11.016 4.9453-11.016 11.016v23.281h-1.8594c-15.516 0-28.176 12.648-28.176 28.199 0 10.332 5.6289 19.332 13.957 24.254v20.746c0 28.922 20.797 53.051 48.227 58.223v20.27c-16.273-18.469-38.281-22.43-54.156-22.43-24.48 0-45.613 9.0469-46.488 9.457-3.7695 1.6562-6.3125 5.2422-6.5898 9.3477-0.13281 1.9062-2.832 46.895 23.074 74.629 13.02 13.871 30.527 20.93 52.152 20.93 9.793 0 20.531-1.5117 32.004-4.4766v16.598h-161.33v-382.75h58.43 0.046875c6.0703 0 11.016-4.9336 11.016-11.016 0-1.5977-0.32422-3.1094-0.91016-4.4531l-91.992-271.3c-1.5234-4.4766-5.7461-7.5-10.453-7.5h-676.84c-4.7148 0-8.9023 3.0234-10.43 7.5l-92.293 272.2c-1.1523 3.3711-0.58984 7.0781 1.4766 9.9609 2.0742 2.8906 5.3984 4.6094 8.9531 4.6094h58.441v393.76c0 6.0977 4.9336 11.027 11.027 11.027h203.88v26.449c0 6.0977 4.9453 11.027 11.027 11.027h292.68c6.0977 0 11.027-4.9336 11.027-11.027v-26.449h505.99c6.0977 0 11.027-4.9336 11.027-11.027-0.015626-6.0703-4.9453-11.004-11.043-11.004zm-769.82-654.96h212.95l6.1211 61.234h-225.2zm-8.3398 83.281h229.61l6.5625 65.594h-242.75zm-38.855 166.89h-261.66l26.867-79.262h242.72zm10.141-101.3h-237.47l22.246-65.594h221.79zm-207.76-87.637 20.773-61.234h201.88l-6.1328 61.234zm440.54 593.72h-178.51v-232.29h178.51zm-220.77-404.79 7.9336-79.262h247.16l7.9336 79.262zm260.15-250.18h201.9l20.746 61.234h-216.52zm8.3516 83.281h221.75l22.246 65.594h-237.46zm16.703 166.89-7.9336-79.262h242.71l26.891 79.262z"/>
  <path d="m600.01 249.38c101.06 0 183.25-82.223 183.25-183.25 0-6.0859-4.9062-11.027-11.027-11.027h-344.47c-6.0977 0-11.016 4.9453-11.016 11.027 0.011719 101.03 82.199 183.25 183.26 183.25z"/>
  <path d="m335.29 77.148h49.453c6.0859 0 11.016-4.9336 11.016-11.016 0-6.0859-4.9336-11.027-11.016-11.027h-49.453c-6.0977 0-11.027 4.9453-11.027 11.027 0 6.0703 4.9297 11.016 11.027 11.016z"/>
  <path d="m361.2 204c2.0508 3.5273 5.7461 5.5078 9.5625 5.5078 1.8711 0 3.7695-0.48047 5.4961-1.4766l42.84-24.742c5.2695-3.0352 7.0781-9.7695 4.0312-15.047-3.0352-5.2695-9.7695-7.0781-15.047-4.0312l-42.84 24.73c-5.2773 3.0469-7.0781 9.7773-4.043 15.059z"/>
  <path d="m482.83 247.04-24.73 42.84c-3.0469 5.2578-1.2461 12.012 4.0312 15.047 1.7383 1.0078 3.625 1.4883 5.4961 1.4883 3.8164 0 7.5117-1.9805 9.5508-5.5078l24.73-42.84c3.0469-5.2695 1.2461-12-4.0312-15.059-5.2539-3.0469-12-1.2344-15.047 4.0312z"/>
  <path d="m589 281.39v49.477c0 6.0859 4.9453 11.016 11.027 11.016 6.0859 0 11.016-4.9336 11.016-11.016v-49.477c0-6.0859-4.9336-11.016-11.016-11.016-6.082 0-11.027 4.9453-11.027 11.016z"/>
  <path d="m702.13 243c-5.2695 3.0469-7.0781 9.793-4.0312 15.059l24.742 42.84c2.0391 3.5273 5.7461 5.5078 9.5508 5.5078 1.8711 0 3.7695-0.48047 5.4961-1.4883 5.2695-3.0352 7.0938-9.7812 4.043-15.047l-24.758-42.84c-3.0195-5.2539-9.7773-7.0664-15.043-4.0312z"/>
  <path d="m776.89 168.25c-3.0469 5.2695-1.2461 12.012 4.0195 15.047l42.852 24.742c1.7383 0.99609 3.625 1.4883 5.4961 1.4883 3.793 0 7.5-1.9805 9.5508-5.5078 3.0469-5.2812 1.2461-12.012-4.0312-15.059l-42.84-24.73c-5.2656-3.0742-11.996-1.2617-15.047 4.0195z"/>
  <path d="m815.28 77.148h49.465c6.0977 0 11.027-4.9453 11.027-11.027 0-6.0859-4.9336-11.016-11.027-11.016h-49.465c-6.0859 0-11.016 4.9453-11.016 11.016 0 6.082 4.9297 11.027 11.016 11.027z"/>
 </g>
</svg>
