<?xml version="1.0" encoding="UTF-8"?>
<svg width="1200pt" height="1200pt" version="1.1" viewBox="0 0 1200 1200" xmlns="http://www.w3.org/2000/svg">
 <g fill="#de3484">
  <path d="m202.66 829.31c48.352-20.938 100.64-33.07 153.27-35.566v-34.219c-34.957-43.297-86.465-68-142.37-68h-100.58c6.3398 57.434 39.316 108.41 89.684 137.79z"/>
  <path d="m254.24 427.12c0 11.234-9.1055 20.34-20.34 20.34-11.234 0-20.34-9.1055-20.34-20.34 0-11.23 9.1055-20.336 20.34-20.336 11.234 0 20.34 9.1055 20.34 20.336"/>
  <path d="m538.98 366.1v-162.71h-258.14v89.344c35.98 12.609 65.414 39.254 81.664 73.367z"/>
  <path d="m335.59 427.12c0-56.074-45.621-101.7-101.7-101.7-56.074 0-101.7 45.621-101.7 101.7 0 56.074 45.621 101.7 101.7 101.7 56.074 0 101.7-45.621 101.7-101.7zm-162.71 0c0-33.645 27.375-61.016 61.016-61.016 33.645 0 61.016 27.375 61.016 61.016 0 33.645-27.375 61.016-61.016 61.016-33.645 0.003907-61.016-27.371-61.016-61.016z"/>
  <path d="m538.98 81.355h-215.9l-32.543 81.355h248.44z"/>
  <path d="m784.53 447.46c-0.95703-6.6445-1.4766-13.43-1.4766-20.34 0-6.9062 0.51953-13.691 1.4766-20.34l-409.73 0.003906c0.95703 6.6445 1.4766 13.43 1.4766 20.34 0 6.9062-0.51953 13.691-1.4766 20.34z"/>
  <path d="m396.61 691.53h406.78v40.68h-406.78z"/>
  <path d="m91.527 305.09v61.016h13.766c22.891-48.055 71.93-81.355 128.61-81.355 2.1016 0 4.1875 0.070312 6.2656 0.16016l-0.003907-105.77 45.156-112.88c6.2109-15.535 21.035-25.57 37.766-25.57h422.72c14.207 0 27.57 7.5703 34.883 19.75l70.191 116.99v128.46c21.699-13.387 47.227-21.133 74.539-21.133 56.68 0 105.72 33.301 128.61 81.355h54.441v-42.109c0-31.855 18.738-59.41 45.77-72.242-26.109-29.621-64.285-48.359-106.79-48.359h-133.55l-104.26-173.77c-10.965-18.273-31.012-29.625-52.32-29.625h-448.01c-25.098 0-47.332 15.055-56.652 38.355l-66.012 165.04h-115.46c-26.516 0-49.121 17.004-57.52 40.676h16.84c33.645 0 61.02 27.375 61.02 61.02z"/>
  <path d="m945.76 427.12c0 11.234-9.1055 20.34-20.34 20.34-11.23 0-20.336-9.1055-20.336-20.34 0-11.23 9.1055-20.336 20.336-20.336 11.234 0 20.34 9.1055 20.34 20.336"/>
  <path d="m925.42 528.81c56.074 0 101.7-45.621 101.7-101.7 0-56.074-45.621-101.7-101.7-101.7s-101.7 45.621-101.7 101.7c0.003907 56.074 45.621 101.7 101.7 101.7zm0-162.71c33.645 0 61.016 27.375 61.016 61.016 0 33.645-27.375 61.016-61.016 61.016-33.645 0-61.016-27.375-61.016-61.016 0-33.641 27.375-61.016 61.016-61.016z"/>
  <path d="m592.23 772.88-81.355 162.71h117.34l-40.676 122.04h0.94141l97.625-162.71h-98.68l61.02-122.03z"/>
  <path d="m722.04 488.14h40.68v162.71h-40.68z"/>
  <path d="m1087 691.53h-100.58c-55.902 0-107.41 24.703-142.37 68v34.219c52.629 2.4961 104.92 14.633 153.27 35.566 50.367-29.379 83.344-80.352 89.684-137.79z"/>
  <path d="m559.32 1098.3h81.355v101.7h-81.355z"/>
  <path d="m803.39 930.1v-157.21h-109.46l-40.68 81.355h104.71l-122.04 203.39h22.59l56.289-14.07c52.16-13.043 88.59-59.699 88.59-113.46z"/>
  <path d="m445.06 976.27 101.7-203.39-150.14 0.003906v157.21c0 53.762 36.426 100.42 88.586 113.46l56.289 14.074h3.1758l27.121-81.355z"/>
  <path d="m1067.8 427.12c0 6.9062-0.51953 13.691-1.4766 20.34h103.17c11.215 0 20.34-9.125 20.34-20.34v-20.34h-123.51c0.95703 6.6484 1.4766 13.434 1.4766 20.34z"/>
  <path d="m1176.9 286.48c-16.023 4.9414-27.699 19.883-27.699 37.508v42.109h40.68v-20.34c0-21.148-4.6719-41.215-12.98-59.277z"/>
  <path d="m844.07 834.44v95.66c0 7.9766-0.62891 15.828-1.7812 23.52 5.9805 1.1094 11.973 2.1758 17.977 3.207l95.137-58.863 21.402 34.59-54.133 33.492c54.906 6.793 110.26 10.227 165.47 10.227v40.68c-62.668 0-125.51-4.293-187.71-12.781l43.137 84.926-36.27 18.422-56.391-111.03c-6.625-1.1484-13.246-2.332-19.852-3.5781-19.043 43.891-57.594 77.91-106.38 90.102l-35.012 8.7539 2.6602 1.5977c49.734 29.848 106.68 45.621 164.69 45.621 78.48 0 154-28.715 212.66-80.855l72.078-64.066-5.8086-7.4688c-71.297-91.664-176.79-146.37-291.87-152.16z"/>
  <path d="m368.95 992.91c-6.6055 1.2461-13.227 2.4297-19.852 3.5781l-56.391 111.03-36.27-18.422 43.137-84.926c-62.203 8.4844-125.05 12.777-187.71 12.777v-40.68c55.211 0 110.56-3.4336 165.46-10.227l-54.133-33.492 21.402-34.59 95.137 58.863c6-1.0312 11.992-2.0938 17.977-3.207-1.1523-7.6953-1.7812-15.547-1.7812-23.52v-95.66c-115.08 5.7852-220.57 60.492-291.87 152.16l-5.8086 7.4688 72.078 64.066c58.656 52.141 134.18 80.855 212.66 80.855 58.004 0 114.95-15.773 164.69-45.617l2.6602-1.5977-35.012-8.7539c-48.777-12.195-87.332-46.215-106.38-90.102z"/>
  <path d="m579.66 81.355v81.355h214.96l-48.816-81.355z"/>
  <path d="m810.21 203.39h-230.55v162.71h217.15c3.7773-7.9258 8.2773-15.438 13.391-22.477z"/>
  <path d="m91.527 427.12c0-6.9062 0.51953-13.691 1.4766-20.34l-82.836 0.003906v20.34c0 11.215 9.125 20.34 20.34 20.34h62.492c-0.95312-6.6484-1.4727-13.434-1.4727-20.344z"/>
  <path d="m437.29 488.14h40.68v162.71h-40.68z"/>
  <path d="m50.848 305.09c0-11.215-9.125-20.34-20.34-20.34h-20.34v81.355h40.68z"/>
 </g>
</svg>
