<?xml version="1.0" encoding="UTF-8"?>
<svg width="1200pt" height="1200pt" version="1.1" viewBox="0 0 1200 1200" xmlns="http://www.w3.org/2000/svg">
 <g fill="#de3484">
  <path d="m1101.5 675.56c-27.457-11.262-58.094-12.066-86.105-2.2617-28.012 9.8047-51.457 29.539-65.895 55.465l-103.98-42.836c19.586-55.969 19.465-116.95-0.34766-172.84l103.78-43.23c20.32 36.355 57.875 59.738 99.465 61.934 41.59 2.1914 81.395-17.109 105.43-51.125 24.031-34.02 28.922-77.984 12.957-116.45-15.965-38.465-50.555-66.047-91.609-73.051-41.055-7-82.832 7.5547-110.64 38.555s-37.773 74.105-26.375 114.16l-103.83 43.25c-25.84-53.336-69.012-96.328-122.45-121.95l42.832-104c29.359 8.2656 60.758 5.1523 87.918-8.7227 27.164-13.875 48.09-37.484 58.605-66.113 10.512-28.633 9.8359-60.176-1.8945-88.328-15.07-36.207-46.734-62.875-84.973-71.57-38.238-8.6953-78.324 1.6602-107.57 27.789-29.242 26.129-44.027 64.797-39.676 103.77 4.3516 38.977 27.305 73.43 61.59 92.465l-42.832 103.97c-55.969-19.586-116.95-19.465-172.84 0.34766l-43.242-103.81c36.406-20.391 59.801-58.043 61.957-99.715 2.1523-41.676-17.23-81.539-51.34-105.58-34.105-24.043-78.168-28.895-116.69-12.852-38.52 16.039-66.117 50.73-73.082 91.875-6.9648 41.145 7.6758 82.984 38.773 110.81 31.094 27.828 74.297 37.746 114.42 26.273l43.25 103.83c-53.336 25.84-96.328 69.012-121.95 122.45l-104-42.836c8.0508-28.578 5.3203-59.117-7.668-85.816-12.988-26.695-35.332-47.691-62.789-58.996-28.953-11.922-61.398-12.168-90.531-0.69141-29.129 11.48-52.684 33.797-65.723 62.266-13.035 28.469-14.543 60.879-4.2031 90.434 10.34 29.555 31.723 53.957 59.664 68.09 27.941 14.133 60.27 16.895 90.207 7.707 29.934-9.1836 55.148-29.605 70.352-56.977l103.95 42.816c-19.586 55.969-19.465 116.95 0.34766 172.84l-103.81 43.242c-20.344-36.289-57.883-59.598-99.43-61.738-41.547-2.1406-81.285 17.191-105.25 51.199-23.965 34.004-28.797 77.93-12.805 116.34 15.992 38.402 50.574 65.914 91.59 72.863s82.73-7.6367 110.48-38.633c27.75-30.996 37.652-74.062 26.227-114.06l103.83-43.25c25.84 53.336 69.012 96.328 122.45 121.95l-42.832 104c-40.062-11.27-83.105-1.1914-114 26.691-30.895 27.883-45.32 69.668-38.203 110.67 7.1133 41.004 34.773 75.484 73.254 91.328 38.484 15.844 82.402 10.832 116.32-13.277 33.922-24.105 53.102-63.934 50.793-105.48-2.3047-41.555-25.773-79.016-62.156-99.219l42.824-103.97h-0.003907c55.969 19.586 116.95 19.465 172.84-0.34766l43.242 103.81c-36.293 20.348-59.602 57.895-61.738 99.445-2.1328 41.551 17.203 81.289 51.215 105.25 34.012 23.961 77.941 28.789 116.35 12.793 38.406-16 65.914-50.586 72.859-91.609 6.9414-41.023-7.6523-82.738-38.652-110.48-31.004-27.746-74.074-37.641-114.08-26.207l-43.25-103.83c53.336-25.84 96.328-69.012 121.95-122.45l104 42.836c-8.4766 30.141-4.9531 62.391 9.832 89.988 14.781 27.598 39.68 48.398 69.465 58.039 29.789 9.6406 62.152 7.3711 90.305-6.3281 28.148-13.703 49.902-37.773 60.691-67.164s9.7773-61.816-2.8203-90.48c-12.598-28.66-35.805-51.328-64.754-63.254zm-406.88-110.28-98.965 227.96v0.003906c-2.2305 5.1367-7.293 8.4609-12.891 8.4648-0.94141-0.003907-1.8789-0.097657-2.8008-0.28125-6.5078-1.3203-11.203-7.0117-11.266-13.648l-1.2852-133.41h-49.211c-4.7383-0.003907-9.1562-2.3906-11.754-6.3516-2.5977-3.9609-3.0234-8.9648-1.1367-13.309l98.957-227.95h-0.003906c2.6484-6.0781 9.1875-9.4805 15.688-8.1641 6.4961 1.3164 11.195 6.9961 11.266 13.625l1.293 133.4h49.219v0.003906c4.7383 0 9.1562 2.3906 11.754 6.3516 2.5977 3.9609 3.0273 8.9648 1.1367 13.312z"/>
  <path d="m604.56 559.82-0.78906-81.234-64.098 147.66h41.699c7.7148 0 13.992 6.2148 14.062 13.926l0.78125 81.238 64.105-147.66h-41.699c-7.7148 0-13.988-6.2188-14.062-13.93z"/>
 </g>
</svg>
