<?xml version="1.0" encoding="UTF-8"?>
<svg width="1200pt" height="1200pt" version="1.1" viewBox="0 0 1200 1200" xmlns="http://www.w3.org/2000/svg">
 <path d="m468.75 93.75c0-10.355 8.3945-18.75 18.75-18.75h225c10.355 0 18.75 8.3945 18.75 18.75v93.75h168.75c31.066 0 56.25 25.184 56.25 56.25v825c0 31.066-25.184 56.25-56.25 56.25h-600c-31.066 0-56.25-25.184-56.25-56.25v-825c0-31.066 25.184-56.25 56.25-56.25h168.75zm125.22 319.05c8.9219 1.6172 15.406 9.3828 15.406 18.449v156.25h103.12c6.1484 0 11.906 3.0156 15.41 8.0703 3.5039 5.0547 4.3047 11.508 2.1445 17.266l-103.12 275c-3.1797 8.4883-11.98 13.484-20.898 11.867-8.9219-1.6172-15.406-9.3828-15.406-18.449v-156.25h-103.12c-6.1484 0-11.906-3.0156-15.41-8.0703-3.5039-5.0547-4.3047-11.508-2.1445-17.262l103.12-275c3.1797-8.4883 11.98-13.484 20.898-11.867z" fill="#df3584" fill-rule="evenodd"/>
</svg>
