<?xml version="1.0" encoding="UTF-8"?>
<svg width="1200pt" height="1200pt" version="1.1" viewBox="0 0 1200 1200" xmlns="http://www.w3.org/2000/svg">
 <g fill="#de3484">
  <path d="m1112.3 504.77-0.54297-0.54297-441.72-347.95c-19.355-16.762-44.078-26.035-69.688-26.133-25.605-0.10156-50.402 8.9805-69.887 25.59l-442.81 349.04c-7.4766 6.4219-11.996 15.625-12.508 25.473-0.50781 9.8438 3.0391 19.465 9.8164 26.625 6.7734 7.1602 16.188 11.23 26.043 11.262h40.914v393.75c0.039063 28.559 11.398 55.934 31.594 76.125 20.191 20.195 47.566 31.555 76.121 31.59h676.7c31.02-0.074219 60.73-12.516 82.547-34.57 21.816-22.055 33.938-51.898 33.676-82.918l-4.3438-383.97h40.734-0.003906c9.8594-0.03125 19.273-4.1016 26.047-11.262 6.7773-7.1602 10.324-16.781 9.8125-26.625-0.50781-9.8477-5.0273-19.051-12.504-25.473zm-259.06 234.25c5.6328-13.703 17.324-24.004 31.633-27.863 14.305-3.8594 29.59-0.83984 41.355 8.168 11.762 9.0117 18.66 22.984 18.66 37.801 0 14.816-6.8984 28.789-18.66 37.797-11.766 9.0117-27.051 12.031-41.355 8.168-14.309-3.8594-26-14.16-31.633-27.863h-36.93v95.949h36.93c5.6328-13.703 17.324-24.004 31.633-27.867 14.305-3.8594 29.59-0.83984 41.352 8.1719 11.766 9.0078 18.664 22.98 18.664 37.797s-6.8984 28.789-18.664 37.801c-11.762 9.0078-27.047 12.027-41.352 8.168-14.309-3.8594-26-14.16-31.633-27.863h-36.93v47.793c0.015624 4.8047-1.8867 9.418-5.2852 12.816-3.3984 3.4023-8.0117 5.3008-12.82 5.2852h-396.46c-4.8086 0.015625-9.4219-1.8828-12.82-5.2852-3.3984-3.3984-5.3008-8.0117-5.2852-12.816v-47.793h-36.93c-5.6367 13.773-17.367 24.133-31.73 28.023-14.367 3.8945-29.723 0.87109-41.543-8.1719-11.82-9.043-18.754-23.074-18.754-37.957 0-14.883 6.9336-28.914 18.754-37.957 11.82-9.043 27.176-12.066 41.543-8.1719 14.363 3.8906 26.094 14.254 31.73 28.027h36.93v-95.949h-36.93c-5.6367 13.773-17.367 24.137-31.73 28.027-14.367 3.8945-29.723 0.87109-41.543-8.1719-11.82-9.043-18.754-23.074-18.754-37.957 0-14.883 6.9336-28.918 18.754-37.961 11.82-9.043 27.176-12.062 41.543-8.1719 14.363 3.8945 26.094 14.254 31.73 28.027h36.93v-95.945h-36.93c-5.6328 13.703-17.324 24.004-31.633 27.863-14.305 3.8594-29.59 0.83984-41.355-8.168-11.762-9.0078-18.66-22.98-18.66-37.801 0-14.816 6.8984-28.789 18.66-37.797 11.766-9.0078 27.051-12.027 41.355-8.168 14.309 3.8594 26 14.16 31.633 27.863h36.93v-47.977c0.015626-4.7969 1.9258-9.3906 5.3203-12.785 3.3906-3.3906 7.9883-5.3008 12.785-5.3164h396.46-0.003906c4.7969 0.015625 9.3945 1.9258 12.785 5.3164 3.3945 3.3945 5.3047 7.9883 5.3203 12.785v47.973h36.93v0.003906c5.6328-13.703 17.324-24.004 31.633-27.867 14.305-3.8594 29.59-0.83984 41.355 8.1719 11.762 9.0078 18.66 22.98 18.66 37.797 0 14.816-6.8984 28.789-18.66 37.801-11.766 9.0078-27.051 12.027-41.355 8.168-14.309-3.8594-26-14.16-31.633-27.863h-36.93v95.949z"/>
  <path d="m419.87 937.08h360.26v-360.07h-360.26zm29.871-312.1c0.015624-4.7969 1.9258-9.3906 5.3164-12.785 3.3945-3.3906 7.9922-5.3008 12.789-5.3164h264.3c4.7969 0.015625 9.3945 1.9258 12.789 5.3164 3.3906 3.3945 5.3008 7.9883 5.3164 12.785v264.31c-0.015624 4.7969-1.9258 9.3945-5.3203 12.785-3.3906 3.3945-7.9883 5.3047-12.785 5.3203h-264.3c-4.7969-0.015625-9.3945-1.9258-12.785-5.3203-3.3945-3.3906-5.3047-7.9883-5.3203-12.785z"/>
  <path d="m485.95 643.08h228.1v228.1h-228.1z"/>
  <path d="m314.15 624.98c0 6.3008-5.1055 11.406-11.406 11.406-6.2969 0-11.402-5.1055-11.402-11.406 0-6.2969 5.1055-11.402 11.402-11.402 6.3008 0 11.406 5.1055 11.406 11.402"/>
  <path d="m302.74 745.55c-6.3438 0.058594-11.445 5.2383-11.402 11.586-0.011719 3.0312 1.1836 5.9453 3.3242 8.0938 2.1406 2.1484 5.0469 3.3555 8.0781 3.3555 3.0352 0 5.9414-1.207 8.082-3.3555 2.1406-2.1484 3.3359-5.0625 3.3242-8.0938 0.042968-6.3477-5.0586-11.527-11.406-11.586z"/>
  <path d="m302.74 877.7c-4.6484-0.035157-8.8633 2.7305-10.676 7.0117-1.8125 4.2852-0.86719 9.2344 2.3945 12.551 3.2617 3.3125 8.1992 4.3359 12.508 2.5898 4.3086-1.7461 7.1445-5.9141 7.1797-10.566 0.042968-6.3438-5.0586-11.527-11.406-11.586z"/>
  <path d="m908.66 624.98c0 6.3008-5.1055 11.406-11.402 11.406-6.3008 0-11.406-5.1055-11.406-11.406 0-6.2969 5.1055-11.402 11.406-11.402 6.2969 0 11.402 5.1055 11.402 11.402"/>
  <path d="m897.26 768.54c3.0273 0.011719 5.9336-1.1875 8.0781-3.3281 2.1406-2.1406 3.3398-5.0508 3.3242-8.0781 0.050782-3.0547-1.1328-6.0039-3.2734-8.1836-2.1445-2.1758-5.0742-3.4023-8.1289-3.4023-3.0586 0-5.9844 1.2266-8.1289 3.4023-2.1445 2.1797-3.3242 5.1289-3.2773 8.1836-0.011718 3.0273 1.1836 5.9375 3.3242 8.0781 2.1445 2.1406 5.0508 3.3398 8.082 3.3281z"/>
  <path d="m897.26 900.69c4.6641 0.035156 8.8906-2.75 10.691-7.0547 1.8047-4.3047 0.82422-9.2695-2.4727-12.57-3.3008-3.3008-8.2656-4.2773-12.57-2.4727-4.3047 1.8008-7.0938 6.0273-7.0547 10.691 0.035157 6.2852 5.1211 11.367 11.406 11.406z"/>
 </g>
</svg>
