<?xml version="1.0" encoding="UTF-8"?>
<svg width="1200pt" height="1200pt" version="1.1" viewBox="0 0 1200 1200" xmlns="http://www.w3.org/2000/svg">
 <path d="m405.71 497.15c-14.703 19.602-39.613 49.898-56.023 68.133l-71.184 79.094-28.695 31.883c-10.555 11.727-28.621 12.68-40.352 2.1211-11.727-10.555-12.68-28.621-2.1211-40.348 6.3984-7.1133 6.3984-7.1133 28.691-31.883l71.184-79.094c15.273-16.969 39.105-45.949 52.785-64.191l49.645-66.191c-6.1602-11.828-9.6406-25.273-9.6406-39.527 0-47.34 38.375-85.715 85.715-85.715s85.715 38.375 85.715 85.715c0 14.254-3.4805 27.699-9.6406 39.527l49.645 66.191c10.727 14.301 35.57 32.211 52.566 37.879l47.211 15.734c14.867 4.957 41.574 2.4648 55.305-5.1602l53.504-29.727c17.152-9.5312 17.152-9.5312 37.527-20.848 20.383-11.324 20.383-11.324 37.539-20.855l53.504-29.727c13.793-7.6602 31.188-2.6914 38.852 11.102 7.6641 13.793 2.6953 31.188-11.102 38.852l-53.5 29.727-37.539 20.852c-20.375 11.32-20.375 11.32-37.531 20.852l-53.504 29.723c-27.723 15.402-71.059 19.445-101.12 9.4219l-47.211-15.734c-28.023-9.3438-62.512-34.203-80.211-57.805l-45.98-61.309c-10.43 4.5156-21.934 7.0156-34.023 7.0156s-23.594-2.5-34.023-7.0156zm-205.71 474.28c0 15.777 12.793 28.57 28.57 28.57 15.781 0 28.574-12.793 28.574-28.57v-128.57c0-15.777-12.793-28.57-28.574-28.57-15.777 0-28.57 12.793-28.57 28.57zm128.57 0c0 15.777 12.793 28.57 28.574 28.57 15.777 0 28.57-12.793 28.57-28.57v-271.43c0-15.781-12.793-28.57-28.57-28.57-15.781 0-28.574 12.789-28.574 28.57zm128.57 0c0 15.777 12.789 28.57 28.57 28.57 15.777 0 28.57-12.793 28.57-28.57v-442.86c0-15.777-12.793-28.57-28.57-28.57-15.781 0-28.57 12.793-28.57 28.57zm128.57 0c0 15.777 12.793 28.57 28.57 28.57 15.781 0 28.57-12.793 28.57-28.57v-271.43c0-15.781-12.789-28.57-28.57-28.57-15.777 0-28.57 12.789-28.57 28.57zm128.57 0c0 15.777 12.793 28.57 28.57 28.57 15.781 0 28.574-12.793 28.574-28.57v-228.57c0-15.777-12.793-28.57-28.574-28.57-15.777 0-28.57 12.793-28.57 28.57zm128.57 0c0 15.777 12.793 28.57 28.574 28.57 15.777 0 28.57-12.793 28.57-28.57v-300c0-15.781-12.793-28.574-28.57-28.574-15.781 0-28.574 12.793-28.574 28.574zm128.57 0c0 15.777 12.789 28.57 28.57 28.57s28.57-12.793 28.57-28.57v-371.43c0-15.781-12.789-28.57-28.57-28.57s-28.57 12.789-28.57 28.57zm-514.29-614.29c0-15.781 12.789-28.574 28.57-28.574 15.777 0 28.57 12.793 28.57 28.574 0 15.777-12.793 28.57-28.57 28.57-15.781 0-28.57-12.793-28.57-28.57z" fill="#df3584" fill-rule="evenodd"/>
</svg>
