<?xml version="1.0" encoding="UTF-8"?>
<svg width="1200pt" height="1200pt" version="1.1" viewBox="0 0 1200 1200" xmlns="http://www.w3.org/2000/svg">
 <path d="m1143.8 37.5h-487.5c-4.9727 0-9.7422 1.9766-13.258 5.4922-3.5156 3.5156-5.4922 8.2852-5.4922 13.258v18.75h-262.5c-4.9727 0-9.7422 1.9766-13.258 5.4922-3.5156 3.5156-5.4922 8.2852-5.4922 13.258h-220.57l-71.039-35.52c-5.8125-2.9062-12.715-2.5977-18.246 0.82031-5.5273 3.4141-8.8906 9.4492-8.8906 15.949v262.5c0 6.5 3.3633 12.535 8.8906 15.949 5.5312 3.418 12.434 3.7266 18.246 0.82031l71.039-35.52h33.074v150c0 3.7031 1.0938 7.3203 3.1484 10.398l69.316 103.97-122.23 279.38h-62.738c-4.9727 0-9.7422 1.9766-13.258 5.4922-3.5156 3.5156-5.4922 8.2852-5.4922 13.258v262.5c0 4.9727 1.9766 9.7422 5.4922 13.258 3.5156 3.5156 8.2852 5.4922 13.258 5.4922h608.79c50.609-0.027344 99.961-15.801 141.21-45.125s72.355-70.754 89.012-118.55l97.41-280.05 74.949-206.11v-0.003906c0.74609-2.0508 1.1289-4.2227 1.1289-6.4062v-131.25h75c4.9727 0 9.7422-1.9766 13.258-5.4922 3.5156-3.5156 5.4922-8.2852 5.4922-13.258v-300c0-4.9727-1.9766-9.7422-5.4922-13.258-3.5156-3.5156-8.2852-5.4922-13.258-5.4922zm-504.27 458.39 71.301 142.6-72.289 187.95c-4.1211 10.586-11.332 19.688-20.695 26.117-9.3672 6.4297-20.449 9.8945-31.809 9.9414h-145.36l82.934-199.04-0.019532-0.007813c0.035157-0.082031 0.085938-0.15625 0.11719-0.24219l75-187.5 0.003906 0.003906c0.88281-2.2148 1.3398-4.5781 1.3398-6.9648v-131.25h37.5v150c0 2.9102 0.67578 5.7812 1.9805 8.3867zm-1.9805-383.39v187.5h-243.75v-187.5zm-562.5-7.1602 37.5 18.75v164.32l-37.5 18.75zm75 175.91v-150h206.25v150h-68.633l-2.5664-23.113h-0.003906c-2.2148-19.949-14.535-37.355-32.609-46.086-18.074-8.7266-39.367-7.5469-56.367 3.125-17 10.668-27.32 29.328-27.32 49.402v16.672zm56.25-16.672c0-7.168 3.6836-13.832 9.7539-17.641 6.0703-3.8125 13.676-4.2305 20.129-1.1172 6.4531 3.1172 10.852 9.332 11.645 16.457l14.84 133.54h-0.003907c0.61328 5.5039 3.6289 10.457 8.2344 13.531 29.957 19.922 47.941 53.527 47.902 89.504v7.3945h37.5v-7.3945c0.050781-45.352-21.156-88.102-57.289-115.5l-7.1797-64.602h45.719v56.25h37.5v-37.5h37.5v37.5h37.5v-37.5h37.5v37.5h37.5v-37.5h37.5v127.64l-67.246 168.11-220.86-67.957-68.145-102.22zm66.723 339.51 208.03 64.008-81 194.4h-240.08zm586.87 382.42c-14.09 40.441-40.414 75.496-75.316 100.31-34.902 24.816-76.66 38.16-119.48 38.184h-590.04v-225h510.99c18.934-0.078125 37.402-5.8516 53.012-16.57 15.605-10.715 27.625-25.883 34.492-43.523l68.977-179.34 208.44 64.133zm171.41-483.56-67.777 186.39-219.04-67.398-69.434-138.86v-108.07h56.25v93.75h37.5v-243.75c0-6.6992 3.5742-12.887 9.375-16.238 5.8008-3.3477 12.949-3.3477 18.75 0 5.8008 3.3516 9.375 9.5391 9.375 16.238v131.25h37.5v-168.75c0-6.6992 3.5742-12.887 9.375-16.238 5.8008-3.3477 12.949-3.3477 18.75 0 5.8008 3.3516 9.375 9.5391 9.375 16.238v168.75h37.5v-131.25c0-6.6992 3.5742-12.887 9.375-16.238 5.8008-3.3477 12.949-3.3477 18.75 0 5.8008 3.3516 9.375 9.5391 9.375 16.238v131.25h37.5v-56.25c0-6.6992 3.5742-12.887 9.375-16.238 5.8008-3.3477 12.949-3.3477 18.75 0 5.8008 3.3516 9.375 9.5391 9.375 16.238zm93.75-165.45h-56.25v-37.5c0.007812-18.262-8.8555-35.391-23.77-45.934-14.91-10.543-34.016-13.188-51.23-7.0898v-21.977c0.011719-18.637-9.2148-36.07-24.637-46.543-15.418-10.469-35.027-12.617-52.344-5.7305-4.3516-15.992-15.535-29.254-30.566-36.238s-32.375-6.9844-47.406 0-26.215 20.246-30.566 36.238c-17.316-6.8867-36.926-4.7383-52.344 5.7305-15.422 10.473-24.648 27.906-24.637 46.543v112.5h-56.25v-262.5h450z" fill="#df3584"/>
</svg>
