<?xml version="1.0" encoding="UTF-8"?>
<svg width="1200pt" height="1200pt" version="1.1" viewBox="0 0 1200 1200" xmlns="http://www.w3.org/2000/svg">
 <path d="m1125.3 822.29c8.543 72.312 7.3555 178.95-3.1914 285.25-1.2344 12.383-11.676 21.637-23.855 21.637-0.78125 0-1.5859-0.035157-2.3867-0.12109-13.199-1.3086-22.824-13.066-21.516-26.258 10.223-103.04 11.449-205.8 3.2773-274.88-2.3633-20.004-12.504-28.934-32.891-28.934-19.211 0-34.668 10.512-34.668 19.211v40.801c0 13.246-10.754 24-24 24s-24-10.754-24-24v-105.67c0-5.0508-12-18.719-25.691-20.578-30.371-4.1289-27.109 9.9375-27 14.258l0.23828 39.984c0 13.246-10.754 24-24 24-13.246 0-24-10.754-24-24v-52.43c0-16.211-22.789-21.984-44.137-21.984-16.02 0-24.098 8.3867-26.676 16.859l0.82812 34.777c0.3125 13.246-10.164 24.254-23.41 24.562-0.20313 0.011718-0.38281 0.011718-0.58984 0.011718-12.984 0-23.676-10.367-23.977-23.426l-0.91016-38.16v-0.011719l-10.691-382.85c-1.4023-28.906-28.367-31.199-36.602-31.199-26.148 0-30.047 31.141-30.047 49.703 3.7305 350.72 2.7227 536.4-3 551.62-0.17969 0.49219-23.797 50.52-43.715 56.965-6.9961 2.2422-15.191 1.1875-21.277-2.8555-33.336-22.152-105.77-79.547-107.38-83.113-54.828-121.41-93.086-137.4-151.57-133.77 10.715 40.957 38.953 128.57 57.035 160.25 19.668 34.43 63.758 92.711 131.03 173.22 8.4961 10.176 7.1406 25.297-3.0352 33.805-10.176 8.4961-25.285 7.1406-33.805-3.0352-70.055-83.832-127.82-159-149.2-196.4-16.715-29.258-55.465-191.88-51.469-199.78 3.6367-7.1992 11.039-12.422 19.031-13.355 99.852-11.496 156.24 8.0625 223.23 153.85 12.516 9.6484 47.785 36.684 75.035 56.125 4.2734-6.5742 8.6172-13.738 10.586-17.629 2.0273-17.113 2.6758-100.09 2.5664-202.67h-33.867c-9.9375 0-18-8.0625-18-18s8.0625-18 18-18h33.816c-0.25391-98.953-1.0781-210.25-2.0039-296.95 0-59.617 30.637-97.957 78.047-97.957 47.578 0 82.344 31.812 84.562 77.363l9.1328 326.86c8.6875-3.1211 18.238-4.7891 28.32-4.7891 38.785 0 64.523 13.055 78.707 31.141 9.9102-4.6445 21.695-7.1406 34.922-7.1406 44.27 0 78.961 28.441 78.961 64.754v3.8516c10.547-3.9844 22.285-6.2031 34.668-6.2031 44.492-0.007813 75.371 27.316 80.555 71.297zm-811.33-126.24h-226.96c-9.9375 0-18-8.0625-18-18v-226.95c0-9.9375 8.0625-18 18-18h226.96c2.6172 0 128.65-54.574 128.65-54.574l-20.051-43.691c-1.7891-3.8984-1.3555-8.4727 1.1406-11.965 2.4844-3.4922 6.6133-5.375 10.945-4.9805l118.44 11.605c4.1523 0.40625 7.7891 2.9414 9.625 6.6953 1.8242 3.7578 1.5703 8.1953-0.68359 11.711l-65.832 103.05c-2.2188 3.4688-6.0352 5.543-10.117 5.543-0.26562 0-0.55078-0.011719-0.82812-0.023438-4.3789-0.30078-8.2422-2.9766-10.078-6.9727l-19.668-44.219-123.54 50.953v221.84c-0.007813 9.9102-8.0742 17.973-18.008 17.973zm139.14-352.26 34.727 75.684 43.453-68.027zm-157.14 125.3h-190.96v190.96h190.96zm-208.96-56.188c9.9375 0 18-8.0625 18-18v-97.98c0-9.9375-8.0625-18-18-18s-18 8.0625-18 18v97.98c0 9.9375 8.0625 18 18 18zm0-191.38c9.9375 0 18-8.0625 18-18v-90.707h70.285c9.9375 0 18-8.0625 18-18s-8.0625-18-18-18h-88.285c-9.9375 0-18 8.0625-18 18v108.71c0 9.9375 8.0625 18 18 18zm195.46-108.71h117.89c9.9375 0 18-8.0625 18-18s-8.0625-18-18-18h-117.89c-9.9375 0-18 8.0625-18 18s8.0625 18 18 18zm243.42 0h125.55c9.9375 0 18-8.0625 18-18s-8.0625-18-18-18h-125.55c-9.9375 0-18 8.0625-18 18s8.0664 18 18 18zm254.16 0h111.76c9.9375 0 18-8.0625 18-18s-8.0625-18-18-18h-111.76c-9.9375 0-18 8.0625-18 18s8.0664 18 18 18zm332.96-36h-95.664c-9.9375 0-18 8.0625-18 18s8.0625 18 18 18h77.664v66.215c0 9.9375 8.0625 18 18 18s18-8.0625 18-18v-84.215c0-9.9375-8.0625-18-18-18zm0 169.95c-9.9375 0-18 8.0625-18 18v82.68c0 9.9375 8.0625 18 18 18s18-8.0625 18-18v-82.68c0-9.9375-8.0625-18-18-18zm0 162.29c-9.9375 0-18 8.0625-18 18v88.801c0 9.9375 8.0625 18 18 18s18-8.0625 18-18v-88.801c0-9.9336-8.0625-18-18-18zm0 177.6c-9.9375 0-18 8.0625-18 18v55.391h-97.57c-9.9375 0-18 8.0625-18 18s8.0625 18 18 18h115.57c9.9375 0 18-8.0625 18-18v-73.391c0-9.9375-8.0625-18-18-18zm-700.4 73.391c-9.9375 0-18 8.0625-18 18s8.0625 18 18 18h90.324c9.9375 0 18-8.0625 18-18s-8.0625-18-18-18z" fill="#df3584"/>
</svg>
