<?xml version="1.0" encoding="UTF-8"?>
<svg width="1200pt" height="1200pt" version="1.1" viewBox="0 0 1200 1200" xmlns="http://www.w3.org/2000/svg">
 <g fill="#de3484">
  <path d="m1118.2 9.0898h-1036.4c-40 0-72.727 32.727-72.727 72.727v83.637h1181.8v-83.637c0-40-32.727-72.727-72.727-72.727zm-974.55 116.36c-18.184 0-32.727-14.547-32.727-32.727 0-18.184 14.547-32.727 32.727-32.727 18.184 0 32.727 14.547 32.727 32.727-1.8164 18.184-14.547 32.727-32.727 32.727zm129.09 0c-18.184 0-32.727-14.547-32.727-32.727 0-18.184 14.547-32.727 32.727-32.727 18.184 0 32.727 14.547 32.727 32.727 0 18.184-14.543 32.727-32.727 32.727zm129.09 0c-18.184 0-32.727-14.547-32.727-32.727 0-18.184 14.547-32.727 32.727-32.727 18.184 0 32.727 14.547 32.727 32.727 0.003906 18.184-14.543 32.727-32.727 32.727zm687.27-12.727h-503.64c-9.0898 0-18.184-9.0898-18.184-18.184 0-10.91 7.2734-18.184 18.184-18.184h503.64c9.0898 0 18.184 7.2734 18.184 18.184 0 9.0938-7.2734 18.184-18.184 18.184z"/>
  <path d="m1190.9 203.64v649.09c0 40-32.727 72.727-72.727 72.727h-105.45l-0.003907-440c0-14.547-5.4531-29.09-16.363-38.184l-145.45-145.45c-10.91-10.91-23.637-16.363-38.184-16.363h-570.91c-30.91 0-54.547 25.453-54.547 54.547v585.45h-105.45c-40 0-72.727-32.727-72.727-72.727v-649.09z"/>
  <path d="m830.91 332.73v134.55h134.54z"/>
  <path d="m849.09 847.27c0 10.039-8.1406 18.18-18.18 18.18-10.043 0-18.184-8.1406-18.184-18.18 0-10.043 8.1406-18.184 18.184-18.184 10.039 0 18.18 8.1406 18.18 18.184"/>
  <path d="m692.73 532.73-67.273 67.273 67.273 67.273c23.637-41.82 23.637-92.727 0-134.55z"/>
  <path d="m707.27 958.18c-5.4531 0-9.0898 1.8164-12.727 5.4531s-5.4531 7.2734-5.4531 12.727c0 10.91 7.2734 18.184 18.184 18.184s18.184-7.2734 18.184-18.184c-0.007813-10.91-7.2773-18.18-18.188-18.18z"/>
  <path d="m603.64 865.45c-10.91 0-18.184 7.2734-18.184 18.184 0 10.91 7.2734 18.184 18.184 18.184 5.4531 0 9.0898-1.8164 12.727-5.4531 3.6367-3.6367 5.4531-7.2734 5.4531-12.727 0-9.0938-7.2695-18.188-18.18-18.188z"/>
  <path d="m812.73 503.64c-10.91 0-18.184-7.2734-18.184-18.184v-163.64h-552.73c-10.91 0-18.184 7.2734-18.184 18.184v832.73c0 9.0898 7.2734 18.184 18.184 18.184h716.36c10.91 0 18.184-9.0898 18.184-18.184v-669.09zm18.184 289.09c30.91 0 54.547 23.637 54.547 54.547 0 30.91-23.637 54.547-54.547 54.547-5.4531 0-10.91-1.8164-16.363-1.8164l-58.184 54.547c3.6367 7.2734 5.4531 14.547 5.4531 21.816 0 30.91-23.637 54.547-54.547 54.547-30.91 0-54.547-23.637-54.547-54.547 0-7.2734 1.8164-14.547 3.6367-20l-27.273-23.637c-7.2734 3.6367-16.363 7.2734-25.453 7.2734-12.727 0-25.453-5.4531-34.547-12.727l-85.453 47.273v5.4531c0 30.91-23.637 54.547-54.547 54.547-30.91 0-54.547-23.637-54.547-54.547s23.637-54.547 54.547-54.547c14.547 0 29.09 5.4531 38.184 16.363l81.816-45.453c0-3.6367-1.8164-7.2734-1.8164-10.91 0-30.91 23.637-54.547 54.547-54.547s54.547 23.637 54.547 54.547c0 7.2734-1.8164 14.547-3.6367 21.816l27.273 23.637c7.2734-3.6367 16.363-7.2734 25.453-7.2734s18.184 1.8164 25.453 5.4531l52.727-50.91c-5.4531-9.0898-9.0898-18.184-9.0898-30.91 1.8203-29.086 25.457-54.543 56.367-54.543zm-132.73-307.27c5.4531 0 10.91 3.6367 12.727 7.2734 47.273 63.637 47.273 150.91 0 214.55-3.6367 3.6367-7.2734 7.2734-12.727 7.2734h-1.8164c-5.4531 0-9.0898-1.8164-12.727-5.4531l-96.363-96.363c-7.2734-7.2734-7.2734-18.184 0-25.453l96.363-96.363c3.6328-3.6406 9.0859-5.4609 14.543-5.4609zm-320-10.906c69.09-69.09 183.64-69.09 252.73 0 7.2734 7.2734 7.2734 18.184 0 25.453l-101.82 100 100 100c7.2734 7.2734 7.2734 18.184 0 25.453-34.547 34.547-78.184 52.727-125.45 52.727-47.273 0-92.727-18.184-125.45-52.727-70.91-69.09-70.91-181.82 0-250.91zm490.91 627.27h-538.18c-10.91 0-18.184-7.2734-18.184-18.184v-216.36c0-10.91 7.2734-18.184 18.184-18.184s18.184 7.2734 18.184 18.184v198.18h518.18c10.91 0 18.184 7.2734 18.184 18.184 1.8125 9.0859-7.2773 18.176-16.371 18.176z"/>
  <path d="m503.64 741.82c32.727 0 61.816-10.91 87.273-29.09l-100-100c-7.2734-7.2734-7.2734-18.184 0-25.453l100-100c-25.453-20-56.363-29.09-87.273-29.09-36.363 0-72.727 14.547-100 41.816-56.363 56.363-56.363 145.45 0 201.82 27.273 25.457 61.816 40 100 40z"/>
  <path d="m449.09 978.18c0 10.039-8.1406 18.18-18.18 18.18-10.043 0-18.184-8.1406-18.184-18.18 0-10.043 8.1406-18.184 18.184-18.184 10.039 0 18.18 8.1406 18.18 18.184"/>
 </g>
</svg>
