<?xml version="1.0" encoding="UTF-8"?>
<svg width="1200pt" height="1200pt" version="1.1" viewBox="0 0 1200 1200" xmlns="http://www.w3.org/2000/svg">
 <g fill="#df3584">
  <path d="m62.5 1050h1075c34.52 0 62.5 34.52 62.5 62.5v25c0 34.52-27.98 62.5-62.5 62.5h-1075c-34.52 0-62.5-34.52-62.5-62.5v-25c0-34.52 27.98-62.5 62.5-62.5z"/>
  <path d="m1148 519.25 23.199-34.773c9.0234-13.434 12.465-29.848 9.6016-45.773-2.8672-15.922-11.816-30.109-24.953-39.555l-519.2-375.6c-10.656-7.707-23.473-11.855-36.625-11.855s-25.969 4.1484-36.625 11.855l-519.18 375.6c-13.145 9.4375-22.102 23.621-24.973 39.551-2.8711 15.926 0.57422 32.344 9.5977 45.777l23.199 34.773c9.4922 14.051 24.262 23.672 40.949 26.672 16.688 3.0039 33.883-0.86328 47.676-10.723l452.03-326.97c4.3711-3.1641 10.277-3.1641 14.648 0l452.03 326.97c13.789 9.875 30.988 13.75 47.68 10.746 16.691-3.0039 31.461-12.633 40.945-26.695z"/>
  <path d="m728.7 700c0 71.078-57.621 128.7-128.7 128.7s-128.7-57.621-128.7-128.7 57.621-128.7 128.7-128.7 128.7 57.621 128.7 128.7"/>
  <path d="m1044.8 555.5-437.5-316.5c-4.3672-3-10.133-3-14.5 0l-437.5 316.5c-6.7305 4.8281-14.145 8.6211-22 11.25-4.9922 1.875-8.2852 6.668-8.25 12v433.75c0 3.3164 1.3164 6.4961 3.6602 8.8398s5.5234 3.6602 8.8398 3.6602h925c3.3164 0 6.4961-1.3164 8.8398-3.6602s3.6602-5.5234 3.6602-8.8398v-433.75c0.035156-5.332-3.2578-10.125-8.25-12-7.875-2.5781-15.297-6.375-22-11.25zm-169.75 171.77c-0.003906 6.6719-2.5938 13.082-7.2305 17.883-4.6328 4.7969-10.953 7.6094-17.621 7.8438l-19.25 0.67578c-5.8672 25.352-15.902 49.559-29.699 71.625l13.176 14.102v-0.003906c4.5469 4.8828 7.0195 11.336 6.9023 18.004-0.11328 6.668-2.8125 13.031-7.5273 17.746l-38.602 38.602c-4.7148 4.7148-11.078 7.4141-17.746 7.5273-6.668 0.11719-13.121-2.3555-18.004-6.9023l-14.051-13.125h0.003906c-22.086 13.789-46.305 23.809-71.676 29.648l-0.67578 19.25c-0.23438 6.668-3.0469 12.988-7.8438 17.621-4.8008 4.6367-11.211 7.2266-17.883 7.2305h-54.547c-6.6719-0.003906-13.082-2.5938-17.883-7.2305-4.7969-4.6328-7.6094-10.953-7.8438-17.621l-0.67578-19.25c-25.352-5.8672-49.559-15.902-71.625-29.699l-14.102 13.176h0.003906c-4.8828 4.5469-11.336 7.0195-18.004 6.9023-6.668-0.11328-13.031-2.8125-17.746-7.5273l-38.602-38.602c-4.7148-4.7148-7.4141-11.078-7.5273-17.746-0.11719-6.668 2.3555-13.121 6.9023-18.004l13.125-14.051v0.003906c-13.773-22.094-23.793-46.312-29.648-71.676l-19.25-0.67578c-6.668-0.23438-12.988-3.0469-17.621-7.8438-4.6367-4.8008-7.2266-11.211-7.2305-17.883v-54.547c0.003906-6.6719 2.5938-13.082 7.2305-17.883 4.6328-4.7969 10.953-7.6094 17.621-7.8438l19.25-0.67578c5.8672-25.352 15.902-49.559 29.699-71.625l-13.176-14.102v0.003906c-4.5469-4.8828-7.0195-11.336-6.9023-18.004 0.11328-6.668 2.8125-13.031 7.5273-17.746l38.602-38.602c4.7148-4.7148 11.078-7.4141 17.746-7.5273 6.668-0.11719 13.121 2.3555 18.004 6.9023l14.051 13.125h-0.003906c22.086-13.789 46.305-23.809 71.676-29.648l0.64844-19.25h0.003906c0.23828-6.6719 3.0547-12.988 7.8594-17.625 4.8008-4.6328 11.215-7.2227 17.891-7.2266h54.551-0.003906c6.6719 0.003906 13.082 2.5938 17.883 7.2305 4.7969 4.6328 7.6094 10.953 7.8438 17.621l0.67578 19.25c25.352 5.8672 49.559 15.902 71.625 29.699l14.102-13.176h-0.003906c4.8828-4.5469 11.336-7.0195 18.004-6.9023 6.668 0.11328 13.031 2.8125 17.746 7.5273l38.602 38.602c4.7148 4.7148 7.4141 11.078 7.5273 17.746 0.11719 6.668-2.3555 13.121-6.9023 18.004l-13.125 14.051v-0.003906c13.789 22.086 23.809 46.305 29.648 71.676l19.25 0.67578c6.668 0.23438 12.988 3.0469 17.621 7.8438 4.6367 4.8008 7.2266 11.211 7.2305 17.883z"/>
 </g>
</svg>
