<?xml version="1.0" encoding="UTF-8"?>
<svg width="1200pt" height="1200pt" version="1.1" viewBox="0 0 1200 1200" xmlns="http://www.w3.org/2000/svg">
 <g fill="#df3584">
  <path d="m338.4 757.2c0 58.801 48 108 108 108v-216c-58.797 1.1992-108 49.199-108 108z"/>
  <path d="m1170 380.4v-128.4c0-63.602-51.602-115.2-115.2-115.2h-909.6c-63.602 0-115.2 51.602-115.2 115.2v128.4zm-334.8-152.4h178.8c16.801 0 30 13.199 30 30s-13.199 30-30 30h-178.8c-16.801 0-30-13.199-30-30s13.199-30 30-30zm-409.2-12c22.801 0 40.801 18 40.801 40.801s-18 40.801-40.801 40.801-40.801-18-40.801-40.801c0-21.602 19.199-40.801 40.801-40.801zm-120 0c22.801 0 40.801 18 40.801 40.801s-18 40.801-40.801 40.801-40.801-18-40.801-40.801c0-21.602 18-40.801 40.801-40.801zm-120 0c22.801 0 40.801 18 40.801 40.801s-18 40.801-40.801 40.801-40.801-18-40.801-40.801c0-21.602 18-40.801 40.801-40.801z"/>
  <path d="m753.6 649.2v216c58.801 0 108-49.199 108-108s-49.203-106.8-108-108z"/>
  <path d="m30 451.2v496.8c0 63.602 51.602 115.2 115.2 115.2h909.6c63.602 0 115.2-51.602 115.2-115.2v-496.8zm556.8 334.8c18 0 32.398 14.398 32.398 32.398s-14.398 32.398-32.398 32.398h-76.801v48c0 18-14.398 31.199-31.199 31.199h-31.199c-84 0-153.6-60-168-139.2l-87.602 0.003906c-18 0-32.398-14.398-32.398-32.398s14.398-32.398 32.398-32.398h86.398c14.398-79.199 85.199-140.4 168-140.4h31.199c18 0 31.199 14.398 31.199 31.199v48h76.801c18 0 32.398 14.398 32.398 32.398s-14.398 32.398-32.398 32.398h-76.801v56.398zm421.2 3.6016h-86.398c-14.398 79.199-85.199 139.2-168 139.2h-31.199c-18 0-31.199-14.398-31.199-31.199l-0.003906-279.6c0-18 14.398-31.199 31.199-31.199h31.199c84 0 153.6 60 168 140.4h86.402c18 0 31.199 14.398 31.199 31.199 0 16.801-13.199 31.203-31.199 31.203z"/>
 </g>
</svg>
