<?xml version="1.0" encoding="UTF-8"?>
<svg width="1200pt" height="1200pt" version="1.1" viewBox="0 0 1200 1200" xmlns="http://www.w3.org/2000/svg">
 <path d="m789.6 405.6c0-92.398 124.8-124.8 169.2-43.199l-56.398 42-19.199-24c-6-7.1992-18-8.3984-25.199-2.3984-7.1992 6-8.3984 18-2.3984 25.199 49.199 60 31.199 58.801 115.2-3.6016 3.6016 49.199-34.801 92.398-84 96-49.199 3.6016-92.398-34.801-96-84-1.2031-2.4023-1.2031-3.6016-1.2031-6zm357.6-213.6c0 658.8 1.1992 621.6-3.6016 628.8-1.1992 2.3984-87.602 117.6-90 120-7.1992 7.1992 9.6016 4.8008-290.4 4.8008-14.398 48-58.801 80.398-108 80.398-328.8 0-279.6 10.801-380.4-39.602-10.801 24-33.602 39.602-60 39.602h-144c-9.6016 0-18-8.3984-18-18v-382.8c0-9.6016 8.3984-18 18-18h142.8c26.398 0 49.199 15.602 60 39.602l68.398-34.801 92.398-231.6c2.3984-7.1992 9.6016-10.801 16.801-10.801h26.398c62.398 0 112.8 50.398 112.8 112.8 0 7.1992-1.1992 15.602-2.3984 22.801l-20.398 103.2h44.398v-416.4c0-9.6016 8.3984-18 18-18h498c10.801 0 19.199 7.1992 19.199 18zm-393.6 213.6c0 69.602 56.398 126 126 126 69.602 0 126-56.398 126-126 0-9.6016-1.1992-20.398-3.6016-30l26.398-19.199c8.3984-6 9.6016-16.801 3.6016-25.199-6-7.1992-16.801-9.6016-25.199-3.6016l-19.199 14.398c-64.801-110.4-234-63.602-234 63.602zm-75.602 237.6h-130.8c-9.6016 0-18-8.3984-18-18v-3.6016l25.199-124.8c4.8008-22.801-1.1992-46.801-15.602-63.602-22.801-27.602-50.398-28.801-74.398-28.801-98.398 247.2-91.199 231.6-99.602 236.4l-85.195 43.207v264c105.6 52.801 45.602 40.801 374.4 40.801 38.398 0 70.801-27.602 76.801-64.801 2.3984-12 1.1992-2.3984 24-193.2 4.8008-42-25.199-81.602-67.199-86.398-3.6016-0.003906-6-1.2031-9.6016-1.2031zm208.8 136.8h-102l-4.8008 36h105.6c9.6016 0 18-8.3984 18-18s-7.2031-18-16.801-18zm140.4-100.8h-243.6c4.8008 12 7.1992 24 8.3984 36h235.2c9.6016 0 18-8.3984 18-18 0-9.5977-8.3984-18-18-18zm0-104.4h-295.2c-9.6016 0-18 8.3984-18 18 0 9.6016 8.3984 18 18 18h294c9.6016 0 18-8.3984 18-18 0-9.6016-7.1992-18-16.801-18zm66 253.2h-33.602v45.602z" fill="#df3584"/>
</svg>
