<?xml version="1.0" encoding="UTF-8"?>
<svg width="1200pt" height="1200pt" version="1.1" viewBox="0 0 1200 1200" xmlns="http://www.w3.org/2000/svg">
 <path d="m520.2 594.45c20.848-41.07 40.137-80.059 60.293-118.59 55.324-105.77 117.7-207.7 186.69-305.11 7.0898-11.953 19.742-19.516 33.625-20.098 7.1992-0.69141 14.27-2.3438 21.023-4.918 8.3203-3.3633 17.594-3.5273 26.027-0.45703 8.4336 3.0664 15.434 9.1523 19.645 17.074 4.2148 7.9258 5.3438 17.129 3.168 25.84-4.9297 20.641-13.652 40.387-20.578 60.566-1.4648 4.2734-2.4922 8.6992-3.7188 13.051l3.1211 2.1367v-0.003907c3.4102-2.5664 6.5742-5.4531 9.4453-8.6172 34.266-45.359 68.105-91.023 102.66-136.15 10.367-12.852 21.398-25.152 33.043-36.859 5.2148-5.4766 12.07-9.1055 19.531-10.34s15.121-0.003907 21.82 3.5c9.3125 3.7969 16.074 12.047 17.961 21.922 1.8906 9.8789-1.3477 20.039-8.5977 27.004-17.977 19.984-33.871 41.746-47.434 64.953-4.5664 13.145-4.1562 27.508 1.1562 40.367 6.2109 14.176 5.0625 30.496-3.0781 43.66-3.4062 5.4648-5.9648 11.469-9.4688 16.863-2.2734 2.8008-3.4844 6.3125-3.418 9.918 0.0625 3.6055 1.3984 7.0742 3.7695 9.7891 2.5391 4.1875 3.7734 9.0312 3.543 13.922-0.22656 4.8906-1.9062 9.5977-4.8242 13.531-7.0547 13.137-13.863 26.418-21.414 39.266v-0.003906c-2.2188 2.8438-3.3203 6.3984-3.1055 9.9961 0.21484 3.5977 1.7305 6.9961 4.2695 9.5547 2.707 3.582 4.207 7.9297 4.2891 12.418 0.082031 4.4922-1.2656 8.8906-3.8398 12.566-13.297 24.801-27.234 49.285-39.652 74.52-51.812 105.27-104.55 210.11-165.56 310.38-45.441 74.691-94.188 147.36-141.48 220.94-9.5586 14.879-19.406 29.562-28.703 44.598h0.003906c-5.5078 9.9297-14.41 17.543-25.074 21.441-5.6641 2.7383-10.285 7.2461-13.168 12.84-5.2461 10.629-14.836 18.465-26.297 21.484-5.2969 1.8789-11.098 1.7656-16.316-0.31641-5.2227-2.082-9.5078-5.9922-12.059-11-2.5508-5.0078-3.1953-10.77-1.8125-16.219 4.875-18.629 11.102-36.879 18.633-54.605 3.4922-8.8789 4.7773-14.48-6.0781-18.836-4.0391-1.9688-7.3594-5.1641-9.4805-9.1289-2.1211-3.9648-2.9414-8.4961-2.3398-12.953 0.11328-3.8203-0.95312-7.582-3.0586-10.773-16.125-20.457-34.664-39.289-48.746-61.027-68.574-105.86-136.44-212.18-203.6-318.96-26.598-42.289-50.766-86.109-75.855-129.34-2.3906-4.8281-4.4375-9.8164-6.1289-14.934l2.8789-2.1367 21.672 19.277 1.9336-1.0547c-7.7539-18.293-16.004-36.387-23.078-54.926-5.8789-15.402-10.652-31.25-15.395-47.059-1.5117-4.6328-1.668-9.6055-0.44922-14.324s3.7578-8.9922 7.3281-12.316c2.6953-3.6406 3.8594-8.1914 3.2422-12.68-1.0625-8.3438-4.3906-16.391-5.5469-24.719v-0.003906c-1.4453-5.125-1.1406-10.582 0.86719-15.516 2.0078-4.9336 5.6016-9.0547 10.215-11.715 4.7383-2.4766 10.191-3.2344 15.422-2.1406 5.2344 1.0938 9.9258 3.9727 13.273 8.1406 10.465 11.117 19.922 23.195 29.742 34.902 2.4688 2.9375 4.7461 6.0352 7.1094 9.0586l2.9766-1.3398c-3.6016-12.445-7.3359-24.848-10.73-37.348-2.7422-10.133-5.582-20.262-7.4453-30.555-2.8984-15.98 1.1992-21.668 16.191-27.273 3.3906-1.8398 5.668-5.2148 6.1055-9.0469-0.24219-10.141 1.5547-19.062 11.746-22.957 4.6602-1.6406 9.7539-1.5469 14.348 0.26953 4.5938 1.8164 8.3789 5.2266 10.656 9.6094 26.512 37.535 53.629 74.684 78.852 113.07 54.453 82.871 107.87 166.43 161.77 249.66 2.2969 2.9258 4.793 5.6875 7.4766 8.2617z" fill="#d8df35"/>
</svg>
