<?xml version="1.0" encoding="UTF-8"?>
<svg width="1200pt" height="1200pt" version="1.1" viewBox="0 0 1200 1200" xmlns="http://www.w3.org/2000/svg">
 <path d="m1062 406.49c-23.664-1.1055-29.305 1.2969-36.18 3.6953-8.5781-26.977-33.875-46.234-63.66-46.57-20.016-0.22656-29.207 1.8359-36.18 3.6953-8.5781-26.977-33.875-45.898-63.66-46.57-20.617-0.46875-27.289 1.1406-33.059 2.7852v-188.44c0-35.578-33.371-66.781-71.41-66.781h-14.246c-36.816 0-66.781 29.965-66.781 66.77l-0.3125 414.85-44.531 1.2617c-3.0352 0.085938-6.0234 0.74219-8.8086 1.9453-25.945 11.172-49.453 77.734-53.879 93.613-7.2461 25.957-6.9492 44.039 0.98438 56.652l61.055 115.78c5.293 10.008 16.801 14.977 27.758 11.902l20.148-5.6875c10.379 57.672 49.738 87.422 88.465 106.41l-0.30078 29.387h-19.164c-13.246 0-24 10.754-24 24v122.51c0 13.246 10.754 24 24 24h316.13c13.246 0 24-10.754 24-24l-0.003906-122.51c0-13.246-10.754-24-24-24h-16.441l-1.0547-36.527c44.137-23.879 81.949-58.129 81.949-130.25v-321.14c-0.035156-36.828-30.035-65.066-66.816-66.781zm-105.98 121.03c-10.008 0-19.262 3.2031-26.891 8.5547v-43.105c5.7734-8.7344 15.66-14.531 26.891-14.531 10.105 0 19.02 4.7656 24.938 12.047v44.34c-7.25-4.5547-15.758-7.3047-24.938-7.3047zm23.016 47.004c0 12.695-10.32 23.016-23.016 23.016-12.684 0-23.004-10.32-23.004-23.016 0-12.684 10.32-23.004 23.004-23.004 12.695 0 23.016 10.32 23.016 23.004zm-223.36-11.219c-12.098 0-23.027 4.8242-31.188 12.551l0.27734-372.88c5.0391-11.27 16.309-19.152 29.426-19.152 11.375 0 21.348 5.9648 27.098 14.902v372.52c-7.3125-5.0039-16.121-7.9414-25.613-7.9414zm21.469 45.469c0 11.832-9.6367 21.469-21.469 21.469-11.832 0-21.469-9.6367-21.469-21.469 0-11.832 9.6367-21.469 21.469-21.469 11.832 0 21.469 9.6367 21.469 21.469zm-73.766 151.37c-19.043 0-34.535-16.176-34.535-36.059 0-19.883 15.492-36.059 34.535-36.059 19.043 0 34.535 16.176 34.535 36.059 0.003906 19.883-15.488 36.059-34.535 36.059zm125.89-313c5.9141-7.3906 14.902-12.227 25.094-12.227 11.125 0 20.953 5.6758 26.746 14.27v85.766c-6.3242-3.3242-13.414-5.3867-21.047-5.3867-11.902 0-22.668 4.6914-30.793 12.191zm30.805 106.41c11.902 0 21.602 9.6953 21.602 21.602 0 11.902-9.6953 21.602-21.602 21.602-11.902 0-21.602-9.6953-21.602-21.602 0-11.902 9.6953-21.602 21.602-21.602zm188.55 33.613c12.84 0 23.281 10.453 23.281 23.293s-10.441 23.293-23.281 23.293c-12.84 0-23.293-10.453-23.293-23.293s10.441-23.293 23.293-23.293zm0-24c-7.043 0-13.668 1.6562-19.68 4.4141v-38.102c5.7617-8.8438 15.684-14.723 27-14.723 10.043 0 18.91 4.7031 24.828 11.914v49.309c-8.4492-7.8789-19.703-12.812-32.148-12.812zm-0.89844-108.68h14.258c10.355 0 18.781 8.4258 18.781 18.781l-0.003906 23.531c-7.5234-3.7305-15.875-6.0352-24.828-6.0352-9.8398 0-18.949 2.7617-27 7.2109v-24.707c0.011719-10.359 8.4336-18.781 18.793-18.781zm-99.828-42.887h14.258c10.355 0 18.781 8.4258 18.781 18.781v30.145c-7.5469-3.7695-15.938-6.0977-24.938-6.0977-9.793 0-18.863 2.7344-26.891 7.1523v-31.211c0.007812-10.348 8.4336-18.77 18.789-18.77zm-99.828-42.879h14.258c10.355 0 18.781 8.4375 18.781 18.793v30.48c-7.9922-4.3672-17.016-7.0781-26.746-7.0781-9.0586 0-17.496 2.3516-25.094 6.168v-18.336c-0.003906-13.707 3.2578-30.027 18.801-30.027zm-104.47-252.43h14.258c11.375 0 23.41 9.6602 23.41 18.781v32.004c-8.0742-4.4883-17.219-7.2617-27.098-7.2617-10.801 0-20.809 3.2148-29.387 8.5078l0.023437-33.254c0-10.344 8.4258-18.777 18.793-18.777zm-131.43 563.66c-0.058594-0.097656-0.10938-0.19141-0.16797-0.28906-1.5-14.785 18.469-64.031 30.527-80.762l33.926-0.96094-0.046875 64.105c0 2.8906 0.58984 5.6289 1.5234 8.1953-19.512 9.7578-33.098 30.121-33.098 53.844 0 22.703 12.492 42.277 30.66 52.477l-10.777 3.0352zm160.03 403.75v-74.508s21.77-0.17969 23.16-0.42188c7.4141 32.398 28.621 59.594 57.156 74.941h-80.316zm133.97-10.32c-60.254 0-90.059-45-89.902-90s30.277-90 89.902-90c59.652 0 89.773 44.652 90.098 89.484 0.32422 45.168-29.617 90.516-90.098 90.516zm0.050781-203.83c-34.512 0-65.426 15.504-86.316 39.84 0.89844-26.93 27.289-206.24 86.316-206.24 68.617 0 83.82 158.16 85.609 205.45-20.883-23.871-51.473-39.051-85.609-39.051zm53.723 214.15c28.789-15.48 50.137-42.984 57.383-75.742 2.3047 0.73047 23.004 1.2344 23.004 1.2344v74.508zm55.066-196.66c-1.4766-37.262-15.59-207.91-108.79-207.91-93.984 0-108.95 194-109.7 213.12-66.816-23.773-73.512-107.15-76.094-111.04 23.93-7.5469 41.484-30.168 41.484-57.156 0-25.801-16.02-47.652-38.316-56.148 0.48047-1.8828 0.80469-3.8281 0.81641-5.8555l0.011719-20.426c8.1602 7.7539 19.129 12.59 31.234 12.59 25.066 0 45.469-20.398 45.469-45.469 0-2.7227-0.34766-5.3516-0.80469-7.9453 1.5977 0.33594 15.492-1.4297 19.547-4.5586 7.6445 14.496 22.691 24.516 40.188 24.516 20.09 0 36.984-13.141 43.055-31.211 0.67187 0.058594 6.3125-0.19141 8.3398-0.75781 6.0859 18.926 23.641 32.746 44.555 32.746 13.391 0 25.43-5.6992 33.996-14.723 3.2539 2.6055 7.1406 4.3672 11.449 5.0039 0.74219 25.43 21.551 45.938 47.16 45.938 12.445 0 23.699-4.9336 32.16-12.828v149.48c0.007812 44.891-16.133 67.785-65.754 92.625zm-928.7-647.47c-3-5.9023-0.64844-13.129 5.2578-16.141 5.8555-3.0352 13.129-0.64844 16.141 5.2578l104.54 205.41 93.277-339.18c1.4297-5.207 6.168-8.8203 11.566-8.8203l156.02 0.003906c6.6367 0 12 5.375 12 12s-5.3633 12-12 12h-146.88l-99.07 360.23c-1.3086 4.7773-5.4258 8.2578-10.355 8.7617-0.39453 0.035157-0.80469 0.058594-1.2109 0.058594-4.4766 0-8.6406-2.5078-10.703-6.5508zm422.38-141.45c0-6.625 5.3633-12 12-12h52.176c6.6367 0 12 5.375 12 12s-5.3633 12-12 12h-52.176c-6.6328 0-12-5.3789-12-12zm102.8 0c0-6.625 5.3633-12 12-12h29.16c6.6367 0 12 5.375 12 12s-5.3633 12-12 12h-29.16c-6.6367 0-12-5.3789-12-12zm-137.43 75.48c-6.6367 0-12 5.375-12 12v39.949c-44.988 5.9141-79.859 44.41-79.859 90.984 0 50.652 41.219 91.859 91.859 91.859s91.859-41.207 91.859-91.859c0-46.57-34.871-85.078-79.859-90.984v-39.949c0-6.625-5.3672-12-12-12zm-67.863 142.93c0-33.312 24.156-61.043 55.859-66.73v133.48c-31.703-5.7031-55.859-33.434-55.859-66.746zm135.72 0c0 33.312-24.156 61.043-55.859 66.73v-133.46c31.703 5.6875 55.859 33.418 55.859 66.73zm21.742 234.98h-468.52c-6.6367 0-12-5.375-12-12s5.3633-12 12-12h468.52c6.6367 0 12 5.375 12 12s-5.375 12-12 12zm-274.49 48.793c-4.2852-7.3906-16.477-7.3906-20.762 0l-116.15 200.2c-2.1602 3.7188-2.1602 8.293-0.011719 12.012 2.1367 3.7188 6.1094 6.0117 10.391 6.0117h232.3 0.23828c6.6367 0 12-5.375 12-12 0-3-1.0938-5.7344-2.9023-7.8359zm-105.7 194.22 95.305-164.28 95.316 164.28z" fill="#df3584"/>
</svg>
