<?xml version="1.0" encoding="UTF-8"?>
<svg width="1200pt" height="1200pt" version="1.1" viewBox="0 0 1200 1200" xmlns="http://www.w3.org/2000/svg">
 <g fill="#de3484">
  <path d="m1144.3 657.32c0-3.6484-1.3398-6.9336-3.7773-9.2422-2.3047-2.3164-5.582-3.7773-9.125-3.7773-3.3984 0-6.6875 1.4609-9.0039 3.6484-2.4219 2.4375-3.8828 5.7266-3.8828 9.3711 0 3.5312 1.4609 6.8086 3.8828 9.2422 2.3164 2.1836 5.6055 3.7656 9.0039 3.7656 3.543 0 6.8164-1.582 9.125-3.7656 2.4375-2.4336 3.7773-5.7148 3.7773-9.2422zm9.2422-21.898c5.4766 5.7148 9.0039 13.379 9.0039 21.895 0 8.5195-3.5312 16.418-9.125 22.133l-0.37109 0.25c-5.5938 5.4766-13.137 8.875-21.652 8.875-8.5039 0-16.18-3.5273-21.766-9.125l-0.37891-0.35547c-5.4648-5.5938-8.7422-13.387-8.7422-21.777 0-8.6367 3.5156-16.43 8.9922-22.145l0.36719-0.36719c5.5977-5.4648 13.137-8.875 21.527-8.875 8.6484 0 16.297 3.5273 21.906 9.2383z"/>
  <path d="m1082.5 125.95c4.3711 2.5547 5.8438 8.0312 3.3945 12.414-0.83984 1.4609-1.9375 2.5547-3.3945 3.4102l-32.969 19.223c-4.3789 2.5547-9.8477 0.96484-12.414-3.4102-2.4219-4.2656-0.96875-9.8594 3.4102-12.414l19.473-11.309-19.473-11.441c-4.3789-2.4219-5.832-8.1484-3.4102-12.52 2.5703-4.3828 8.0352-5.7266 12.414-3.1602z"/>
  <path d="m898.65 1087.6c4.9766 0 8.9922 4.0156 8.9922 9.125 0 4.9766-4.0156 9.125-8.9922 9.125h-47.211c-4.9883 0-9.125-4.1484-9.125-9.125 0-5.1094 4.1367-9.125 9.125-9.125z"/>
  <path d="m867.14 1112c4.8555 0 9.0039 4.1328 9.0039 9.2422 0 4.9883-4.1484 9.125-9.0039 9.125h-100.85c-5.1055 0-9.125-4.1328-9.125-9.125 0-5.1094 4.0156-9.2422 9.125-9.2422z"/>
  <path d="m609.49 469.49c-20.684 10.703-38.324 26.762-52.676 48.289-1.5781 2.6875-4.5039 4.3867-7.6641 4.3867-5.1133 0-9.125-4.1328-9.125-9.2422v-50.488h-45.258v403.27h52.551v-220.91c0-27.977 2.7969-51.453 8.5156-70.672 4.5039-14.852 10.703-27.25 18.609-37.109 2.6797-3.2773 5.5938-6.2031 8.6367-8.875 11.922-10.465 24.816-18.246 38.688-23.477 13.863-5.2383 29.07-7.9141 45.012-7.9141 10.098 0 19.578 1.2109 28.582 3.6484 9.0078 2.3164 17.277 5.8438 24.949 10.348l0.59375 0.35547c7.6719 4.8711 14.363 10.465 19.84 16.918 5.3438 6.4375 9.7266 13.742 12.77 21.777l0.11719 0.23828c2.9219 7.7812 5.3594 17.762 6.6875 29.32 1.5898 11.43 2.3164 24.449 2.3164 39.418v246.94h52.543l0.003907-249.75c0-16.297-0.35547-30.043-0.83984-41.117-0.73047-11.309-1.6992-20.195-2.9219-26.645-1.8203-9.4805-4.6211-18.367-8.0195-26.633-3.4219-8.1484-7.5547-15.691-12.297-22.633-4.6211-6.4375-10.703-12.52-17.879-17.879-7.1758-5.5977-15.824-10.336-25.789-14.598-9.8477-4.375-20.316-7.6641-31.387-9.7305-10.82-2.3164-22.262-3.4102-34.297-3.4102-27.5-0.003906-51.578 5.3555-72.262 16.18zm-51.336 17.152c12.652-13.996 27.008-25.055 43.062-33.336 23.348-12.285 50.363-18.367 80.539-18.367 13.012 0 25.66 1.3438 37.824 3.7656 12.051 2.3164 23.723 6.082 34.914 10.836 11.191 4.7383 21.16 10.336 29.559 16.785 8.7539 6.4492 15.93 13.863 21.777 22.145 5.5977 7.9023 10.336 16.785 14.23 26.148 3.8945 9.2422 6.9375 19.34 9.125 29.926v0.13281c1.3438 7.0469 2.4336 16.902 3.0391 29.188 0.73828 12.047 1.2148 26.027 1.2148 42.09v258.87c0 4.9883-4.1328 9.125-9.125 9.125h-70.789c-4.9883 0-9.125-4.1328-9.125-9.125l-0.003907-256.07c0-14.484-0.48828-26.766-1.9492-37.113-1.2227-10.086-3.0391-18.484-5.7148-24.934l-0.12109-0.48828c-2.3164-6.082-5.4766-11.547-9.7422-16.418-4.1328-4.8711-9.3594-9.375-15.441-13.141l-0.23828-0.12109c-6.332-3.7773-13.02-6.6875-20.316-8.6367-7.4336-1.832-15.336-2.8047-24.09-2.8047-13.875 0-26.766 2.3164-38.68 6.6875-11.93 4.5039-23 11.191-32.855 20.078h-0.24219c-9.6055 8.5156-16.902 20.922-21.77 37.469-5.2344 17.512-7.9141 39.418-7.9141 65.445v230.04c0 4.9883-4.0078 9.125-9.125 9.125l-70.547 0.003906c-4.9883 0-9.0039-4.1328-9.0039-9.125v-421.51c0-5.1055 4.0156-9.2422 9.0039-9.2422h63.504c4.9844 0 9 4.1328 9 9.2422z"/>
  <path d="m416.79 865.7v-403.27h-52.676v403.27zm18.25-412.39v421.52c0 4.9883-4.0156 9.125-9.125 9.125h-70.797c-4.9883 0-9.125-4.1328-9.125-9.125v-421.52c0-5.1055 4.1328-9.2422 9.125-9.2422h70.797c5.1094 0 9.125 4.1367 9.125 9.2422z"/>
  <path d="m431.64 370.36c0-12.781-4.9883-24.09-13.141-32.242-8.1484-8.3984-19.465-13.379-31.992-13.379-12.289 0-23.355 4.8594-31.512 12.891l-0.35938 0.48828c-8.1484 8.1484-13.141 19.457-13.141 32.242 0 12.52 4.9883 23.844 13.141 32.113 8.1484 8.1484 19.465 13.258 31.871 13.258 12.527 0 23.844-5.1094 31.992-13.258 8.1484-8.2695 13.141-19.711 13.141-32.113zm-0.37109-45.262c11.441 11.559 18.488 27.5 18.488 45.262 0 17.512-7.0508 33.57-18.488 45.133-11.309 11.43-27.246 18.734-44.762 18.734-17.516 0-33.207-7.3047-44.645-18.734-11.441-11.559-18.488-27.621-18.488-45.133 0-17.762 7.0508-33.703 18.367-45.262l0.48828-0.48828c11.559-11.309 27.129-18.25 44.281-18.25 17.512 0.003906 33.203 7.0586 44.758 18.738z"/>
  <path d="m236.39 1088.1c4.1406-4.3867 10.223-7.0586 16.91-7.0586 6.5703 0 12.652 2.6719 16.91 7.0586 4.3789 4.3711 7.0586 10.453 7.0586 17.141 0 6.6992-2.6797 12.785-7.0586 17.152-4.2578 4.3867-10.34 7.1797-16.91 7.1797-6.6875 0-12.77-2.793-16.91-7.1797-4.3789-4.3672-7.1758-10.453-7.1758-17.152 0.003906-6.6875 2.8008-12.77 7.1758-17.141zm12.781 21.406c1.0938 0.97266 2.4297 1.6992 4.1328 1.6992 1.5781 0 3.043-0.72656 4.2578-1.6992 0.97656-1.0938 1.5781-2.5547 1.5781-4.2656 0-1.5781-0.60547-3.1602-1.5781-4.25-1.2148-0.97656-2.6797-1.7031-4.2578-1.7031-1.707 0-3.0391 0.72656-4.1328 1.7031-1.0938 1.0938-1.7031 2.6758-1.7031 4.25-0.003906 1.7109 0.60938 3.1719 1.7031 4.2656z"/>
  <path d="m164.13 99.07c1.4609 4.8711-1.457 9.8594-6.2031 11.32l-16.297 4.2539c-4.7461 1.3438-9.6133-1.5781-11.07-6.4492-1.2148-4.8594 1.707-9.8477 6.4453-11.188l16.18-4.3711c4.8633-1.2266 9.7344 1.5742 10.945 6.4336z"/>
  <path d="m141.75 138.49c1.3359 4.9883-1.707 9.9805-6.4453 11.191-4.8711 1.3398-9.7344-1.582-11.07-6.3203l-4.2578-16.062c-1.3359-4.8711 1.5781-9.8516 6.4492-11.191 4.8633-1.2109 9.7305 1.5781 10.949 6.5703z"/>
  <path d="m235.91 1012.2h684.62c13.875 0 26.898-2.9219 38.809-7.793 12.535-5.3477 23.844-12.887 33.207-22.383 9.5039-9.4766 17.035-20.801 22.262-33.449 4.8711-12.035 7.7891-25.305 7.7891-39.289v-628.2c0-13.867-2.9219-27.242-7.7891-39.406-5.2266-12.531-12.887-23.844-22.262-33.336-9.3633-9.3711-20.555-17.152-33.074-22.379-12.047-4.9883-25.066-7.793-38.941-7.793h-684.62c-13.75 0-26.891 2.8047-38.93 7.793-12.289 5.2266-23.723 12.891-33.09 22.379-9.3672 9.4883-16.902 20.922-22.137 33.453-4.8672 12.047-7.6641 25.422-7.6641 39.285v628.2c0 13.984 2.7969 27.254 7.6641 39.289 5.2344 12.531 12.77 23.973 22.137 33.449 9.3672 9.4961 20.801 17.035 33.207 22.383 11.926 4.875 25.062 7.7969 38.812 7.7969zm684.63 18.25h-684.63c-16.062 0-31.633-3.2891-45.742-9.2422-14.719-6.0859-27.977-15.09-39.051-26.277-11.07-11.07-19.828-24.578-26.035-39.414-5.8398-14.234-9.125-29.926-9.125-46.227v-628.2c0-16.297 3.2852-31.992 9.125-46.344 6.082-14.84 14.961-28.098 26.035-39.297 11.07-11.191 24.328-20.066 39.051-26.266 14.113-5.9609 29.68-9.2539 45.742-9.2539h684.62c16.297 0 31.637 3.2891 45.867 9.2539 14.715 6.2031 27.859 15.074 38.926 26.266 11.074 11.199 20.195 24.461 26.16 39.297 5.9531 14.352 9.2422 30.043 9.2422 46.344v628.2c0 16.418-3.2891 31.988-9.2422 46.344-6.2148 14.719-15.086 28.227-26.16 39.297-11.07 11.188-24.211 20.195-38.926 26.277-14.227 5.9492-29.801 9.2422-45.863 9.2422z"/>
  <path d="m129.34 91.656c1.2148 4.8594-1.707 9.9648-6.4453 11.188-4.9883 1.332-9.8555-1.7109-11.07-6.4492l-4.1328-15.324c-1.2188-4.9883 1.5781-9.8594 6.4453-11.188 4.7461-1.2227 9.8555 1.5781 11.07 6.5703z"/>
  <path d="m119.12 111.37c1.3359 4.7383-1.5859 9.8477-6.3242 11.191l-16.551 4.3711c-4.7383 1.3438-9.8477-1.5781-11.066-6.3203-1.2188-4.9883 1.5781-9.9805 6.4453-11.191l16.422-4.6211c4.8672-1.2227 9.7305 1.5781 11.074 6.5703z"/>
  <path d="m94.426 629.58-17.391 5.2266-4.7461-16.418v-0.11719l17.273-5.2383z"/>
  <path d="m81.898 651.24-17.152 5.2266-4.9883-16.418v-0.13281l17.277-5.1055z"/>
  <path d="m72.289 618.27v0.11719l-17.273 5.2266-4.8633-16.535 17.273-5.1094z"/>
  <path d="m54.891 623.62 4.8672 16.297v0.13281l-17.273 5.2266-4.9844-16.547 17.391-5.2266z"/>
 </g>
</svg>
