<?xml version="1.0" encoding="UTF-8"?>
<svg width="1200pt" height="1200pt" version="1.1" viewBox="0 0 1200 1200" xmlns="http://www.w3.org/2000/svg">
 <g fill="#df3584">
  <path d="m420 903.6c-21.602-26.398-52.801-42-88.801-42-7.1992 0-13.199 3.6016-16.801 8.3984l-43.199 62.398c-6 8.3984-18 8.3984-22.801 0l-43.199-62.398c-3.6016-6-9.6016-8.3984-16.801-8.3984-52.801 0-98.398 37.199-110.4 88.801l-25.199 112.8c-6 25.199 13.199 49.199 39.602 49.199h244.8c0-1.1992 1.1992-2.3984 1.1992-2.3984l25.199-112.8c8.3984-38.402 28.797-70.805 56.398-93.602z"/>
  <path d="m260.4 844.8c58.801 0 108-48 108-108v-44.398c0-58.801-48-108-108-108-58.801 0-108 48-108 108v44.398c0 60 49.203 108 108 108z"/>
  <path d="m1122 949.2c-12-51.602-57.602-88.801-111.6-88.801-6 0-12 3.6016-15.602 8.3984l-43.199 62.398c-6 8.3984-18 8.3984-22.801 0l-43.199-62.398c-3.6016-6-9.6016-8.3984-15.602-8.3984-36 0-67.199 15.602-88.801 42 28.801 22.801 48 55.199 57.602 92.398l25.199 112.8c0 1.1992 1.1992 2.3984 1.1992 2.3984h246c25.199 0 44.398-24 39.602-49.199z"/>
  <path d="m831.6 736.8c0 58.801 48 108 108 108s108-48 108-108v-44.398c0-58.801-48-108-108-108s-108 48-108 108z"/>
  <path d="m670.8 920.4c-7.1992 0-13.199 3.6016-16.801 8.3984l-43.199 62.398c-6 8.3984-16.801 8.3984-22.801 0l-43.199-62.398c-3.6016-6-9.6016-8.3984-16.801-8.3984-52.801 0-99.602 37.199-110.4 88.801l-25.199 112.8c-6 25.199 13.199 49.199 39.602 49.199h336c26.398 0 44.398-24 39.602-49.199l-25.203-114c-12-51.602-57.598-87.602-111.6-87.602z"/>
  <path d="m600 643.2c-58.801 0-108 48-108 108v44.398c0 58.801 48 108 108 108 58.801 0 108-48 108-108v-44.398c0-58.801-49.199-108-108-108z"/>
  <path d="m409.2 294c0 21.602-9.6016 42-27.602 54l-19.199 13.199c-10.797 7.1992-14.398 22.801-7.1992 34.801l33.602 58.801c7.1992 12 21.602 16.801 34.801 10.801l21.602-9.6016c19.199-8.3984 40.801-8.3984 58.801 2.3984 1.1992 1.1992 2.3984 1.1992 3.6016 2.3984 18 9.6016 30 28.801 31.199 49.199l1.1992 22.801c1.1992 13.199 12 24 26.398 24h68.398c13.199 0 25.199-10.801 26.398-24l2.3984-22.801c1.1992-20.398 13.199-39.602 31.199-49.199 1.1992-1.1992 2.3984-1.1992 3.6016-2.3984 18-10.801 39.602-10.801 58.801-2.3984l21.602 9.6016c12 6 27.602 1.1992 34.801-10.801l33.602-58.801c7.1992-12 3.6016-27.602-8.3984-34.801l-20.406-13.199c-18-12-27.602-32.398-27.602-54s9.6016-42 27.602-54l19.199-13.199c10.801-7.1992 14.398-22.801 8.3984-34.801l-34.797-60c-7.1992-12-21.602-16.801-34.801-10.801l-20.398 10.801c-19.199 8.3984-40.801 8.3984-58.801-2.3984-1.1992-1.1992-2.3984-1.1992-3.6016-2.3984-18-9.6016-30-28.801-31.199-49.199l-2.3984-24.004c-1.1992-13.199-12-24-26.398-24h-68.398c-13.199 0-25.199 10.801-26.398 24l-1.1992 22.801c-1.1992 20.398-13.199 39.602-31.199 49.199-1.1992 1.1992-2.3984 1.1992-3.6016 2.3984-18 10.801-39.602 10.801-58.801 2.3984l-21.602-9.6016c-12-6-27.602-1.1992-34.801 10.801l-33.602 58.801c-7.1992 12-3.6016 27.602 8.3984 34.801l19.199 13.199c18.004 12.004 27.602 32.402 27.602 55.203v0zm190.8-112.8c62.398 0 112.8 50.398 112.8 112.8 0 62.398-50.398 112.8-112.8 112.8-62.398 0-112.8-50.398-112.8-112.8 0-62.398 50.402-112.8 112.8-112.8z"/>
  <path d="m660 294c0 33.137-26.863 60-60 60s-60-26.863-60-60 26.863-60 60-60 60 26.863 60 60"/>
 </g>
</svg>
