<?xml version="1.0" encoding="UTF-8"?>
<svg width="1200pt" height="1200pt" version="1.1" viewBox="0 0 1200 1200" xmlns="http://www.w3.org/2000/svg">
 <g fill="#df3584">
  <path d="m881.25 375v160.99l-42.992-42.992-26.512 26.512 88.254 88.254 88.258-88.258-26.512-26.512-42.996 42.996v-160.99c0-51.695-42.055-93.75-93.75-93.75h-187.5v37.5h187.5c31.012 0 56.25 25.238 56.25 56.25z"/>
  <path d="m318.75 825v-160.99l42.992 42.992 26.512-26.512-88.254-88.254-88.258 88.258 26.512 26.512 42.996-42.996v160.99c0 51.695 42.055 93.75 93.75 93.75h187.5v-37.5h-187.5c-31.012 0-56.25-25.238-56.25-56.25z"/>
  <path d="m300 18.75c-155.32 0-281.25 125.93-281.25 281.25s125.93 281.25 281.25 281.25 281.25-125.93 281.25-281.25-125.93-281.25-281.25-281.25zm98.27 424.69-91.426-106.63c-2.2109 0.41406-4.5 0.69531-6.8438 0.69531-20.719 0-37.5-16.781-37.5-37.5 0-13.836 7.5938-25.801 18.75-32.305v-192.7h37.5v192.7c11.156 6.4883 18.75 18.449 18.75 32.305 0 4.3516-0.88281 8.4375-2.25 12.32l91.461 106.73z"/>
  <path d="m900 618.75c-155.32 0-281.25 125.93-281.25 281.25s125.93 281.25 281.25 281.25 281.25-125.93 281.25-281.25-125.93-281.25-281.25-281.25zm0 318.75c-6.8633 0-13.219-1.9883-18.75-5.1953l-103.2 58.969-18.602-32.551 103.07-58.895c0.054688-13.762 7.6133-25.648 18.73-32.117v-192.71h37.5v192.7c11.156 6.4883 18.75 18.449 18.75 32.305 0 20.719-16.781 37.5-37.5 37.5z"/>
 </g>
</svg>
