<?xml version="1.0" encoding="UTF-8"?>
<svg width="1200pt" height="1200pt" version="1.1" viewBox="0 0 1200 1200" xmlns="http://www.w3.org/2000/svg">
 <path d="m581.55 333.09h-183.28l-219.08 168.51h-81.695c-35.602 0-64.715 29.141-64.715 64.715v272.34h121.96c-0.18359-3.3008-0.26953-6.6172-0.26953-9.9766 0-102.42 83.027-185.43 185.43-185.43 102.42 0 185.43 83.012 185.43 185.43 0 3.3594-0.085937 6.6758-0.28516 9.9766h56.496v-505.56zm477.12 197.9v-98.137h-183.02v98.137zm0 144.99v-98.137h-183.02v98.137zm0 144.95v-98.137h-183.02v98.137zm-167.06-502.54v-79.754h151.1v79.754h81.555c23.641 0 42.973 19.332 42.973 42.961v529.69c0 23.641-19.332 42.973-42.973 42.973h-314.2c-23.641 0-42.973-19.332-42.973-42.973v-529.69c0-23.629 19.332-42.961 42.973-42.961zm208.3 67.297h-265.54v481h265.54zm-479.71-144.24h97.301v689.77h-97.301zm-280.3 454.51c73.305 0 132.73 59.414 132.73 132.72 0 73.277-59.43 132.72-132.73 132.72-73.277 0-132.7-59.441-132.7-132.72 0-73.305 59.43-132.72 132.7-132.72zm0.015625 70.145c34.555 0 62.562 28.008 62.562 62.574 0 34.539-28.008 62.562-62.562 62.562s-62.562-28.02-62.562-62.562c0-34.57 28.008-62.574 62.562-62.574z" fill="#df3584" fill-rule="evenodd"/>
</svg>
