<?xml version="1.0" encoding="UTF-8"?>
<svg width="1200pt" height="1200pt" version="1.1" viewBox="0 0 1200 1200" xmlns="http://www.w3.org/2000/svg">
 <g fill="#df3584">
  <path d="m473.44 37.5v174.38h659.06v-174.38zm562.5 115.31h-484.69v-37.5h483.75v37.5z"/>
  <path d="m435.94 37.5h-368.44v174.38h368.44zm-265.31 115.31h-39.375v-37.5h39.375zm108.75 0h-39.375v-37.5h39.375zm70.312 0v-37.5h39.375v37.5z"/>
  <path d="m67.5 249.38v913.12h1064.1v-913.12zm241.88 60h290.62v37.5h-290.62zm241.88 483.75h205.31v37.5h-205.31zm-120.94-83.438v-37.5h169.69v37.5zm-120.94-279.38h290.62v37.5h-290.62zm0 120.94h290.62v37.5h-290.62zm0 241.88h206.25v37.5h-206.25zm0 120.94h290.62v37.5h-290.62zm-84.375 158.44h-54.375v-37.5h54.375zm0-120.94h-54.375v-37.5h54.375zm0-120.94h-54.375v-37.5h54.375zm0-120.94h-54.375v-37.5h54.375zm0-120.94h-54.375v-37.5h54.375zm0-120.94h-54.375v-37.5h54.375zm0-120.94h-54.375v-37.5h54.375zm163.12 725.62h-78.75v-37.5h78.75zm284.06 0h-241.88v-37.5h241.88zm0-158.44h120.94v37.5h-120.94zm85.312-204.38v-37.5h169.69v37.5zm180.94 362.81h-193.12v-37.5h193.12zm24.375-483.75h-290.62v-37.5h290.62z"/>
 </g>
</svg>
