<?xml version="1.0" encoding="UTF-8"?>
<svg width="1200pt" height="1200pt" version="1.1" viewBox="0 0 1200 1200" xmlns="http://www.w3.org/2000/svg">
 <path d="m332.34 854.88c-1.8477 3.9922-4.0977 7.7812-6.7188 11.316-12.176 13.441-24.414 26.859-37.305 39.602v-0.003906c-5.0781 5.1367-11.18 9.1484-17.906 11.777-4.832 2.2305-10.273 2.7852-15.457 1.5742-5.1875-1.207-9.8203-4.1055-13.176-8.2422-3.2578-3.9375-5.082-8.8711-5.168-13.984-0.089843-5.1133 1.5664-10.105 4.6914-14.156 29.125-47.836 57.277-96.309 87.84-143.22 33.863-51.988 69.602-102.77 105.38-153.48 6.832-9.6758 5.4922-14.531-2.2578-21.988-34.559-33.254-68.785-66.855-102.68-100.8l0.003906 0.007812c-9.8281-10.676-19.047-21.895-27.617-33.602-1.8398-2.6055-3.2812-5.4688-4.2773-8.4961-3.0938-8.0195-5.8672-16.168-8.9961-24.172-1.0195-2.6016-3.6328-4.8008-3.9727-7.3984-0.83984-6.3828-0.78125-12.879-1.0859-19.336 6.3359-0.03125 14.18-2.5234 18.77 0.28906 42.527 26.102 84.496 53.109 126.61 79.895 3.6016 2.2969 7.043 4.875 10.559 7.3242l2.3867-2.1602c-5.0547-6.7539-10.188-13.441-15.148-20.273-34.125-46.918-68.199-93.879-102.21-140.88l-0.003906 0.003907c-3.8008-4.7188-6.4883-10.23-7.8633-16.133-0.82031-5.1953 0.12891-13.414 3.4805-15.773h0.003906c5.3711-2.0234 11.348-1.6797 16.453 0.94531 4.7773 3 8.9414 6.875 12.27 11.43 55.859 59.812 111.75 119.59 167.68 179.34 3.3281 3.5312 11.25 7.5312 14.008 5.9727v-0.003906c5.0352-2.3086 8.9414-6.5273 10.859-11.723 1.9141-5.1953 1.6836-10.941-0.64453-15.965-23.426-34.758-47.34-69.195-70.32-104.24-19-28.977-37.383-58.359-55.141-88.141h0.003907c-5.7461-10.645-10.355-21.859-13.758-33.465 23.039 30.148 45.824 60.504 69.195 90.395 28.305 36.195 57.098 72 85.703 107.96 9.6172 12.09 10.258 12.059 20.266 0.046875 61.488-76.281 126.77-149.43 195.59-219.17 4.7148-4.793 10.25-8.707 16.344-11.551-17.055 38.414-37.664 75.148-61.559 109.73l2.2969 2.0469c7.5156-7.1875 15.07-14.336 22.547-21.57 36.492-35.32 73-70.625 109.52-105.92 5.5703-5.2539 11.633-9.957 18.105-14.047 3.6641-2.957 8.2227-4.582 12.93-4.6094 4.707-0.03125 9.2852 1.5352 12.984 4.4453 3.9727 2.9492 6.7188 7.2656 7.7031 12.113 0.98828 4.8516 0.15234 9.8945-2.3516 14.164-6.1602 12.668-13.332 24.824-21.445 36.344-21.344 30.328-43.41 60.148-65.152 90.195-2.9219 3.5977-4.8438 7.9023-5.5742 12.477 3.2656-2.5117 6.6445-4.8945 9.7812-7.5586 25.48-21.676 50.867-43.461 76.41-65.059 4.3242-3.6289 8.9688-6.8516 13.875-9.6367 4.4258-3.2969 9.8945-4.8789 15.395-4.457 5.5 0.41797 10.664 2.8164 14.531 6.75 3.7383 4.0234 6.0312 9.1797 6.5156 14.648 0.48828 5.4727-0.85547 10.949-3.8203 15.57l-4.625 8.625c4.1523 0 6.7852 0.011719 9.418 0v0.003906c5.6953-0.6875 11.445 0.81641 16.074 4.2031 4.6328 3.3906 7.8047 8.4141 8.875 14.051 1.0703 5.6406-0.042969 11.477-3.1094 16.324-7.2109 10.551-11.426 22.855-12.203 35.609-1.4414 6.6328-5.1445 12.551-10.477 16.75-41.348 40.023-83.891 78.855-124.4 119.7-38.309 38.641-74.332 79.516-111.97 118.82-3.6602 2.7422-5.9102 6.9727-6.1406 11.539-0.23438 4.5703 1.5781 9.0039 4.9375 12.105 56.152 76.324 108.36 155.48 156.41 237.14 4.6055 7.9492 10.898 15.375 3.332 25.355-1.1016 1.4414 1.875 7.2344 4.2461 9.8633 9.4453 10.465 19.867 20.074 28.883 30.875 2.8789 3.457 2.543 9.6016 3.6797 14.527-4.7578-0.29688-10.664 1.1172-14.082-1.1719-16.387-10.996-31.629-23.73-48.188-34.434-15.68-10.137-33.77-16.832-48.59-27.98-62.16-46.746-123.62-94.398-185-142.17-15.805-12.305-15-12.848-29.52 1.5859-104.07 103.46-208.22 206.84-312.44 310.14l0.003906-0.003906c-5.1328 5.1328-10.797 9.6992-16.898 13.625-4.1367 2.9609-9.0547 4.6406-14.137 4.8398-5.0859 0.19531-10.117-1.1016-14.473-3.7344-4.5469-2.3711-8.1875-6.168-10.367-10.812-2.1758-4.6406-2.7695-9.8672-1.6875-14.879 1.3555-10.324 5.0312-20.203 10.746-28.906 33.617-43.754 68.355-86.641 102.59-129.92 2.5898-3.7188 4.9336-7.6055 7.0156-11.633z" fill="#7634bf"/>
</svg>
