<?xml version="1.0" encoding="UTF-8"?>
<svg width="1200pt" height="1200pt" version="1.1" viewBox="0 0 1200 1200" xmlns="http://www.w3.org/2000/svg">
 <g fill="#df3584">
  <path d="m600 974.12c206.29 0 374.12-167.82 374.12-374.12s-167.83-374.12-374.12-374.12-374.12 167.82-374.12 374.12 167.83 374.12 374.12 374.12zm0-677.65c167.36 0 303.53 136.16 303.53 303.53 0 167.36-136.16 303.53-303.53 303.53-167.36 0-303.53-136.16-303.53-303.53 0-167.36 136.17-303.53 303.53-303.53z"/>
  <path d="m486.04 741.02-1.6523 1.7227 17.613 42.043 204.86 0.035156 0.015625-51.48-151.14-0.027344c14.668-24.586 29.867-59.801 27.938-98.152h68.844v-51.48l-81.457-0.003906c-7.7383-24.43-24.605-92.973 21.648-112.47 10.723-4.5195 23.25-5.6875 36.281-3.3477 4.5234 0.8125 44.168 9.0547 44.168 48.254v3.6367h51.488v-3.6367c0-57.621-43.48-91.207-86.57-98.93-22.848-4.1016-45.445-1.8203-65.379 6.5859-78.516 33.105-63.891 125.55-55.32 159.91h-42.043v51.48h56.66c4.3164 53.031-45.434 105.33-45.957 105.86z"/>
  <path d="m993.39 913.91h-0.070312l-163.32 0.30469c-19.488 0.035156-35.258 15.867-35.223 35.363 0.035156 19.469 15.824 35.223 35.293 35.223h0.070312l72.859-0.13281c-36.43 28.855-76.48 52.312-119.78 69.785-182.58 73.848-390.55 31.539-529.89-107.8-139.02-139.02-181.41-346.77-108-529.26 7.2695-18.086-1.4883-38.648-19.566-45.918-18.09-7.2852-38.652 1.4883-45.918 19.566-83.984 208.78-35.484 446.46 123.58 605.51 107.34 107.34 250.29 164.35 395.99 164.35 70.688 0 142.03-13.418 210.25-41.027 54.027-21.797 103.68-51.664 148.27-88.898l-0.16406 86.555c-0.035156 19.496 15.734 35.328 35.223 35.363h0.070312c19.461 0 35.258-15.754 35.293-35.223l0.31641-168.42c0.019531-9.3867-3.6992-18.387-10.34-25.023-6.6055-6.6055-15.586-10.324-24.945-10.324z"/>
  <path d="m996.57 203.43c-159.42-159.44-397.41-207.82-606.24-123.33-54.02 21.789-103.68 51.656-148.28 88.891l0.16406-86.547c0.035156-19.496-15.734-35.328-35.223-35.363h-0.070313c-19.461 0-35.258 15.754-35.293 35.223l-0.31641 168.42c-0.019531 9.3867 3.6992 18.387 10.34 25.023 6.6211 6.6211 15.594 10.34 24.953 10.34h0.070313l163.31-0.30469c19.488-0.035156 35.258-15.867 35.223-35.363-0.035156-19.469-15.824-35.223-35.293-35.223h-0.070313l-72.855 0.13281c36.43-28.863 76.48-52.32 119.78-69.785 182.56-73.871 390.55-31.547 529.89 107.8 139.02 139.02 181.41 346.77 108 529.26-7.2695 18.086 1.4883 38.648 19.566 45.918 4.3125 1.7383 8.7734 2.5547 13.156 2.5547 13.984 0 27.219-8.3633 32.762-22.129 83.992-208.78 35.477-446.46-123.58-605.51z"/>
 </g>
</svg>
