<?xml version="1.0" encoding="UTF-8"?>
<svg width="1200pt" height="1200pt" version="1.1" viewBox="0 0 1200 1200" xmlns="http://www.w3.org/2000/svg">
 <g fill="#df3584">
  <path d="m1e3 112.5c-0.03125-29.828-11.895-58.422-32.988-79.512-21.09-21.094-49.684-32.957-79.512-32.988h-575c-29.828 0.03125-58.422 11.895-79.512 32.988-21.094 21.09-32.957 49.684-32.988 79.512v62.5h800z"/>
  <path d="m312.5 1200h575c29.828-0.03125 58.422-11.895 79.512-32.988 21.094-21.09 32.957-49.684 32.988-79.512v-87.5h-800v87.5c0.03125 29.828 11.895 58.422 32.988 79.512 21.09 21.094 49.684 32.957 79.512 32.988zm225-125h125c6.9023 0 12.5 5.5977 12.5 12.5s-5.5977 12.5-12.5 12.5h-125c-6.9023 0-12.5-5.5977-12.5-12.5s5.5977-12.5 12.5-12.5z"/>
  <path d="m1e3 200h-800v775h800zm-337.5 612.5h-125v-125c0-6.6289 2.6328-12.988 7.3242-17.676 4.6875-4.6914 11.047-7.3242 17.676-7.3242h75c6.6289 0 12.988 2.6328 17.676 7.3242 4.6914 4.6875 7.3242 11.047 7.3242 17.676zm100-50c0 13.262-5.2695 25.98-14.645 35.355s-22.094 14.645-35.355 14.645h-25v-125c0-13.262-5.2695-25.98-14.645-35.355s-22.094-14.645-35.355-14.645h-75c-13.262 0-25.98 5.2695-35.355 14.645s-14.645 22.094-14.645 35.355v125h-25c-13.262 0-25.98-5.2695-35.355-14.645s-14.645-22.094-14.645-35.355v-120.15c3.5977-1.9023 6.957-4.2266 10-6.9258l152.5-140.9 152.5 140.88c3.0391 2.7148 6.3984 5.0469 10 6.9531zm58.199-166.57-14.676 18.375c-4.332 5.4219-10.727 8.8008-17.648 9.3203-6.9258 0.52344-13.754-1.8594-18.852-6.5703l-161.05-148.73h0.003906c-4.7891-4.4141-12.164-4.4141-16.953 0l-161.05 148.73h0.003906c-5.0977 4.7109-11.926 7.0938-18.852 6.5703-6.9219-0.51953-13.316-3.8984-17.648-9.3203l-14.676-18.375c-3.957-4.9297-5.8984-11.176-5.4336-17.48 0.46484-6.3047 3.2969-12.195 7.9336-16.496l184.23-170.12h-0.003906c9.2383-8.5312 21.352-13.27 33.926-13.27s24.688 4.7383 33.926 13.27l184.23 170.12c4.6484 4.2852 7.5 10.172 7.9844 16.477 0.48047 6.3047-1.4414 12.559-5.3867 17.5z"/>
 </g>
</svg>
