<?xml version="1.0" encoding="UTF-8"?>
<svg width="1200pt" height="1200pt" version="1.1" viewBox="0 0 1200 1200" xmlns="http://www.w3.org/2000/svg">
 <path d="m993.68 777.49c10.25 1.0625 18.125 9.0234 19.074 19.289l2.6484 28.438c1.4375 15.512 19.648 22.977 31.562 12.926l21.824-18.414c7.875-6.6367 19.074-6.7891 27.125-0.36328 11.102 8.8633 21.227 18.898 30.176 29.926 6.5 8 6.4375 19.199-0.14844 27.125l-18.238 21.977c-9.9492 11.988-2.3516 30.137 13.176 31.449l28.477 2.4141c10.273 0.875 18.301 8.6875 19.438 18.938 1.5742 14.102 1.625 28.375 0.16406 42.488-1.0625 10.25-9.0234 18.125-19.289 19.074l-28.438 2.6367c-15.512 1.4375-22.977 19.648-12.926 31.562l18.414 21.824c6.6484 7.875 6.8008 19.062 0.375 27.125-8.8633 11.102-18.898 21.227-29.926 30.176-8 6.5-19.199 6.4375-27.125-0.14844l-21.977-18.238c-11.988-9.9492-30.137-2.3516-31.461 13.176l-2.4141 28.477c-0.875 10.262-8.6875 18.289-18.938 19.438-14.102 1.5742-28.375 1.625-42.477 0.16406-10.25-1.0625-18.125-9.0234-19.074-19.289l-2.6484-28.438c-1.4375-15.512-19.648-22.977-31.562-12.926l-21.824 18.414c-7.875 6.6484-19.074 6.8008-27.125 0.375-11.102-8.8633-21.227-18.898-30.176-29.926-6.5-8-6.4375-19.199 0.14844-27.125l18.238-21.977c9.9492-11.988 2.3516-30.137-13.176-31.461l-28.477-2.4141c-10.273-0.875-18.301-8.6875-19.438-18.938-1.5742-14.102-1.625-28.375-0.16406-42.488 1.0625-10.25 9.0234-18.125 19.289-19.074l28.438-2.6484c15.512-1.4375 22.977-19.648 12.926-31.562l-18.414-21.824c-6.6367-7.875-6.7891-19.062-0.36328-27.113 8.8633-11.102 18.898-21.227 29.926-30.176 8-6.5 19.199-6.4375 27.125 0.14844l21.977 18.238c11.988 9.9492 30.137 2.3516 31.461-13.176l2.4141-28.477c0.875-10.273 8.6875-18.301 18.938-19.438 14.102-1.5742 28.375-1.625 42.477-0.16406zm-393.68-350.44c-95.512 0-172.94 77.426-172.94 172.94s77.426 172.94 172.94 172.94 172.94-77.426 172.94-172.94-77.426-172.94-172.94-172.94zm95.102 227.88c-3.9375 6.7891-12.637 9.1133-19.426 5.1758l-63.801-36.836c-3.5625 1.8242-7.6016 2.8516-11.875 2.8516-14.426 0-26.125-11.699-26.125-26.125 0-9.1758 4.7266-17.238 11.875-21.898v-107.34c0-7.875 6.3867-14.25 14.25-14.25s14.25 6.375 14.25 14.25v107.34c6.7891 4.4258 11.398 11.938 11.836 20.551l63.824 36.852c6.8008 3.9375 9.1133 12.625 5.1758 19.426zm-95.102-310.8c-141.31 0-255.88 114.56-255.88 255.88s114.56 255.88 255.88 255.88 255.88-114.55 255.88-255.88-114.55-255.88-255.88-255.88zm0 457.31c-111.25 0-201.44-90.199-201.44-201.44s90.188-201.45 201.44-201.45 201.44 90.199 201.44 201.45-90.188 201.44-201.44 201.44zm-352.75-23.949c10.25 1.0625 18.125 9.0234 19.074 19.289l2.6367 28.438c1.4375 15.512 19.648 22.977 31.562 12.926l21.824-18.414c7.875-6.6367 19.074-6.7891 27.125-0.36328 11.102 8.8633 21.227 18.898 30.176 29.926 6.5 8 6.4375 19.199-0.14844 27.125l-18.238 21.977c-9.9492 11.988-2.3516 30.137 13.176 31.449l28.477 2.4141c10.273 0.875 18.301 8.6875 19.438 18.938 1.5742 14.102 1.625 28.375 0.16406 42.488-1.0625 10.25-9.0234 18.125-19.289 19.074l-28.438 2.6367c-15.512 1.4375-22.977 19.648-12.926 31.562l18.414 21.824c6.6367 7.875 6.8008 19.062 0.36328 27.125-8.8633 11.102-18.898 21.227-29.926 30.176-8 6.5-19.199 6.4375-27.125-0.14844l-21.977-18.238c-11.988-9.9492-30.137-2.3516-31.461 13.176l-2.4141 28.477c-0.875 10.262-8.6875 18.289-18.938 19.438-14.102 1.5742-28.375 1.625-42.477 0.16406-10.25-1.0625-18.125-9.0234-19.074-19.289l-2.6367-28.438c-1.4375-15.512-19.648-22.977-31.562-12.926l-21.824 18.414c-7.875 6.6484-19.074 6.8008-27.125 0.375-11.102-8.8633-21.227-18.898-30.176-29.926-6.5-8-6.4375-19.199 0.14844-27.125l18.238-21.977c9.9492-11.988 2.3516-30.137-13.176-31.461l-28.477-2.4141c-10.273-0.875-18.301-8.6875-19.438-18.938-1.5742-14.102-1.625-28.375-0.16406-42.488 1.0625-10.25 9.0234-18.125 19.289-19.074l28.438-2.6484c15.512-1.4375 22.977-19.648 12.926-31.562l-18.414-21.824c-6.6484-7.875-6.8008-19.062-0.375-27.113 8.8633-11.102 18.898-21.227 29.926-30.176 8-6.5 19.199-6.4375 27.125 0.14844l21.977 18.238c11.988 9.9492 30.137 2.3516 31.461-13.176l2.4141-28.477c0.875-10.273 8.6875-18.301 18.938-19.438 14.102-1.5742 28.375-1.625 42.477-0.16406zm250.27-559.8c-7.5859 2.0234-15.387-2.4766-17.426-10.074-2.0234-7.5859 2.4883-15.398 10.074-17.426 59.625-15.938 122.91-18.574 183.69-7.9258l-16.523-23.863c-4.4609-6.4609-2.8359-15.301 3.6133-19.762 6.4492-4.4609 15.301-2.8359 19.762 3.6133l37.113 53.613c4.4609 6.4609 2.8359 15.301-3.6133 19.762l-53.613 37.113c-6.4492 4.4609-15.301 2.8359-19.762-3.6133-4.4609-6.4492-2.8359-15.301 3.6133-19.762l26.949-18.648c-57.562-10.5-117.35-8.1367-173.89 6.9766zm41.863 729.57c6.4492-4.4609 15.301-2.8359 19.762 3.6133 4.4609 6.4492 2.8359 15.301-3.625 19.762l-26.949 18.664c57.562 10.488 117.36 8.1367 173.89-6.9766 7.6016-2.0234 15.398 2.4883 17.426 10.074 2.0391 7.5859-2.4766 15.398-10.074 17.426-59.625 15.938-122.91 18.574-183.7 7.9258l16.523 23.875c4.4609 6.4609 2.8359 15.301-3.6133 19.762-6.4492 4.4609-15.301 2.8359-19.762-3.625l-37.113-53.613c-4.4609-6.4609-2.8359-15.301 3.6133-19.762l53.613-37.113zm-286.65-407.88c4.4609 6.4492 2.8359 15.301-3.6133 19.762-6.4492 4.4609-15.301 2.8359-19.762-3.6133l-18.648-26.949c-10.5 57.562-8.1367 117.36 6.9766 173.89 2.0234 7.5859-2.4883 15.398-10.074 17.426-7.5859 2.0234-15.387-2.4766-17.426-10.074-15.938-59.625-18.574-122.91-7.9141-183.7l-23.875 16.523c-6.4492 4.4492-15.301 2.8359-19.762-3.625-4.4609-6.4492-2.8359-15.301 3.6133-19.762l53.613-37.113c6.4492-4.4609 15.301-2.8359 19.762 3.6133l37.113 53.613zm694.52 121.21c-4.4609-6.4609-2.8359-15.301 3.6133-19.762 6.4492-4.4609 15.301-2.8359 19.762 3.6133l18.648 26.938c10.5-57.551 8.1367-117.35-6.9766-173.88-2.0234-7.5859 2.4883-15.387 10.074-17.426 7.5859-2.0234 15.387 2.4883 17.426 10.074 15.938 59.625 18.562 122.91 7.9258 183.69l23.863-16.512c6.4492-4.4609 15.301-2.8359 19.762 3.6133s2.8359 15.301-3.6133 19.762c-17.648 12.227-36.113 25.977-54.074 37.414-6.4141 4.0742-14.949 2.3867-19.301-3.9258l-37.113-53.613zm-700.01-629.54c10.25 1.0625 18.125 9.0234 19.074 19.289l2.6367 28.438c1.4375 15.512 19.648 22.977 31.562 12.926l21.824-18.414c7.875-6.6367 19.074-6.7891 27.125-0.36328 11.102 8.8633 21.227 18.898 30.176 29.926 6.5 8 6.4375 19.199-0.14844 27.125l-18.238 21.977c-9.9492 11.988-2.3516 30.137 13.176 31.461l28.477 2.4141c10.273 0.875 18.301 8.6875 19.438 18.938 1.5742 14.102 1.625 28.375 0.16406 42.477-1.0625 10.25-9.0234 18.125-19.289 19.074l-28.438 2.6367c-15.512 1.4375-22.977 19.648-12.926 31.562l18.414 21.824c6.6367 7.875 6.8008 19.074 0.36328 27.125-8.8633 11.102-18.898 21.227-29.926 30.176-8 6.5-19.199 6.4375-27.125-0.14844l-21.977-18.238c-11.988-9.9492-30.137-2.3516-31.461 13.176l-2.4141 28.477c-0.875 10.262-8.6875 18.289-18.938 19.438-14.102 1.5742-28.375 1.625-42.477 0.16406-10.25-1.0625-18.125-9.0234-19.074-19.289l-2.6367-28.438c-1.4375-15.512-19.648-22.977-31.562-12.926l-21.824 18.414c-7.875 6.6367-19.074 6.8008-27.125 0.36328-11.102-8.8633-21.227-18.898-30.176-29.926-6.5-8-6.4375-19.199 0.14844-27.125l18.238-21.977c9.9492-11.988 2.3516-30.137-13.176-31.461l-28.477-2.4141c-10.273-0.875-18.301-8.6875-19.438-18.938-1.5742-14.102-1.625-28.375-0.16406-42.477 1.0625-10.25 9.0234-18.125 19.289-19.074l28.438-2.6367c15.512-1.4375 22.977-19.648 12.926-31.562l-18.414-21.824c-6.6484-7.875-6.8008-19.074-0.375-27.125 8.8633-11.102 18.898-21.227 29.926-30.176 8-6.5 19.199-6.4375 27.125 0.14844l21.977 18.238c11.988 9.9492 30.137 2.3516 31.461-13.176l2.4141-28.477c0.875-10.273 8.6875-18.301 18.938-19.438 14.102-1.5625 28.375-1.625 42.477-0.16406zm-20.461 107.39c-48.789 0-88.336 39.551-88.336 88.336 0 48.789 39.551 88.336 88.336 88.336 48.789 0 88.336-39.551 88.336-88.336 0-48.789-39.551-88.336-88.336-88.336zm0 746.43c-48.789 0-88.336 39.551-88.336 88.336 0 48.789 39.551 88.336 88.336 88.336 48.789 0 88.336-39.551 88.336-88.336 0-48.789-39.551-88.336-88.336-88.336zm766.89-853.81c10.25 1.0625 18.125 9.0234 19.074 19.289l2.6484 28.438c1.4375 15.512 19.648 22.977 31.562 12.926l21.824-18.414c7.875-6.6367 19.074-6.7891 27.125-0.36328 11.102 8.8633 21.227 18.898 30.176 29.926 6.5 8 6.4375 19.199-0.14844 27.125l-18.238 21.977c-9.9492 11.988-2.3516 30.137 13.176 31.461l28.477 2.4141c10.273 0.875 18.301 8.6875 19.438 18.938 1.5742 14.102 1.625 28.375 0.16406 42.477-1.0625 10.25-9.0234 18.125-19.289 19.074l-28.438 2.6367c-15.512 1.4375-22.977 19.648-12.926 31.562l18.414 21.824c6.6484 7.875 6.8008 19.074 0.375 27.125-8.8633 11.102-18.898 21.227-29.926 30.176-8 6.5-19.199 6.4375-27.125-0.14844l-21.977-18.238c-11.988-9.9492-30.137-2.3516-31.461 13.176l-2.4141 28.477c-0.875 10.262-8.6875 18.289-18.938 19.438-14.102 1.5742-28.375 1.625-42.477 0.16406-10.25-1.0625-18.125-9.0234-19.074-19.289l-2.6484-28.438c-1.4375-15.512-19.648-22.977-31.562-12.926l-21.824 18.414c-7.875 6.6367-19.074 6.8008-27.125 0.36328-11.102-8.8633-21.227-18.898-30.176-29.926-6.5-8-6.4375-19.199 0.14844-27.125l18.238-21.977c9.9492-11.988 2.3516-30.137-13.176-31.461l-28.477-2.4141c-10.273-0.875-18.301-8.6875-19.438-18.938-1.5742-14.102-1.625-28.375-0.16406-42.477 1.0625-10.25 9.0234-18.125 19.289-19.074l28.438-2.6367c15.512-1.4375 22.977-19.648 12.926-31.562l-18.414-21.824c-6.6367-7.875-6.7891-19.074-0.36328-27.125 8.8633-11.102 18.898-21.227 29.926-30.176 8-6.5 19.199-6.4375 27.125 0.14844l21.977 18.238c11.988 9.9492 30.137 2.3516 31.461-13.176l2.4141-28.477c0.875-10.273 8.6875-18.301 18.938-19.438 14.102-1.5625 28.375-1.625 42.477-0.16406zm-20.461 107.39c-48.789 0-88.336 39.551-88.336 88.336 0 48.789 39.551 88.336 88.336 88.336 48.789 0 88.336-39.551 88.336-88.336 0-48.789-39.551-88.336-88.336-88.336zm0 746.43c-48.789 0-88.336 39.551-88.336 88.336 0 48.789 39.551 88.336 88.336 88.336 48.789 0 88.336-39.551 88.336-88.336 0-48.789-39.551-88.336-88.336-88.336z" fill="#de3484" fill-rule="evenodd"/>
</svg>
