<?xml version="1.0" encoding="UTF-8"?>
<svg width="1200pt" height="1200pt" version="1.1" viewBox="0 0 1200 1200" xmlns="http://www.w3.org/2000/svg">
 <path d="m358.74 206.48h86.102v46.887c0 15.449 6.3086 29.465 16.414 39.57 10.133 10.133 24.137 16.426 39.586 16.426h198.3c15.449 0 29.453-6.293 39.586-16.426 10.105-10.105 16.414-24.121 16.414-39.57v-46.887h86.117c31.492 0 60.152 12.898 80.914 33.648 20.82 20.836 33.719 49.492 33.719 80.988v644.25c0 31.508-12.898 60.152-33.648 80.914-20.836 20.82-49.492 33.719-80.988 33.719h-482.52c-31.492 0-60.152-12.898-80.914-33.648-20.82-20.836-33.719-49.48-33.719-80.988v-644.25c0-31.492 12.898-60.152 33.648-80.914 20.836-20.82 49.492-33.719 80.988-33.719zm142.1-21.074h46.93c6.6484 0 12.062-5.4141 12.062-12.047v-15.152c0-21.02 17.191-38.195 38.195-38.195 21.035 0 38.211 17.18 38.211 38.195v15.152c0 6.6328 5.4297 12.047 12.062 12.047h50.84c10.898 0 19.785 8.9023 19.785 19.785v48.176c0 10.898-8.8867 19.785-19.785 19.785h-198.3c-10.898 0-19.785-8.8867-19.785-19.785v-48.176c0-10.887 8.8867-19.785 19.785-19.785zm-30.516 304.09c-9.9336 0-18-8.0664-18-18 0-9.9336 8.0664-18 18-18h394.63c9.9336 0 18 8.0664 18 18 0 9.9336-8.0664 18-18 18zm-148.01 255.11c-7.0156-7.0156-7.0156-18.441 0-25.457s18.441-7.0156 25.457 0l14.895 14.895 14.895-14.895c7.0156-7.0156 18.441-7.0156 25.457 0s7.0156 18.441 0 25.457l-14.895 14.895 14.895 14.895c7.0156 7.0156 7.0156 18.441 0 25.457s-18.441 7.0156-25.457 0l-14.895-14.895-14.895 14.895c-7.0156 7.0156-18.441 7.0156-25.457 0s-7.0156-18.441 0-25.457l14.895-14.895zm148.01 176.9c-9.9336 0-18-8.0664-18-18s8.0664-18 18-18h394.63c9.9336 0 18 8.0664 18 18s-8.0664 18-18 18zm-148.01-5.9102c-7.0156-7.0156-7.0156-18.441 0-25.457s18.441-7.0156 25.457 0l11.523 11.523 29.168-34.469c6.4062-7.5703 17.746-8.5039 25.312-2.0977 7.5703 6.4062 8.5039 17.746 2.0977 25.312l-42.773 50.516c-7.0156 7.0156-18.441 7.0156-25.457 0zm148.01-138.09c-9.9336 0-18-8.0664-18-18s8.0664-18 18-18h394.63c9.9336 0 18 8.0664 18 18s-8.0664 18-18 18zm0-144c-9.9336 0-18-8.0664-18-18s8.0664-18 18-18h394.63c9.9336 0 18 8.0664 18 18s-8.0664 18-18 18zm-148.01-5.9102c-7.0156-7.0156-7.0156-18.441 0-25.457s18.441-7.0156 25.457 0l11.523 11.523 29.168-34.469c6.4062-7.5703 17.746-8.5039 25.312-2.0977 7.5703 6.4062 8.5039 17.746 2.0977 25.312l-42.773 50.516c-7.0156 7.0156-18.441 7.0156-25.457 0zm0-144c-7.0156-7.0156-7.0156-18.441 0-25.457s18.441-7.0156 25.457 0l11.523 11.523 29.168-34.469c6.4062-7.5703 17.746-8.5039 25.312-2.0977 7.5703 6.4062 8.5039 17.746 2.0977 25.312l-42.773 50.516c-7.0156 7.0156-18.441 7.0156-25.457 0z" fill="#df3584" fill-rule="evenodd"/>
</svg>
