<?xml version="1.0" encoding="UTF-8"?>
<svg width="1200pt" height="1200pt" version="1.1" viewBox="0 0 1200 1200" xmlns="http://www.w3.org/2000/svg">
 <g fill="#df3584">
  <path d="m309.2 1118.4h-200c-30.398 0-54.801-24.801-54.801-54.801v-200c0-30.398 24.801-54.801 54.801-54.801h200c30.398 0 54.801 24.801 54.801 54.801v200c0 30.004-24.801 54.801-54.801 54.801z"/>
  <path d="m700.4 1117.6h-31.199v-26.398h30.801zm-62 0h-30.801v-26.398h30.801zm-62 0h-30.801v-26.398h30.801zm-62 0h-10.398c-8.8008 0-18-2-26-6.3984l12.398-23.602c4.3984 2 8.8008 3.1992 13.602 3.1992h10.398zm223.2-14.402-17.602-19.602c5.1992-4.8008 8.8008-11.199 9.6016-18.398l26.398 3.1992c-1.6016 13.203-8.3984 25.602-18.398 34.801zm-286-22c-2.3984-6.3984-3.6016-13.199-3.6016-20v-15.602h26.398v15.602c0 3.6016 0.80078 7.1992 2 10.398zm304.4-45.598h-26.398v-30.801h26.398zm-281.2-20.402h-26.801v-31.199h26.398v31.199zm281.2-41.598h-26.398v-30.801h26.398zm-281.2-20.402h-26.801v-30.801h26.398v30.801zm281.2-41.598h-26.398v-30.801h26.398zm-281.2-20.402h-26.801v-26c0-2 0-4.3984 0.39844-6.3984l26.398 3.1992v3.6016zm252.8-36.398c-2.3984-6.8008-7.6016-12.398-14-15.602l12.398-23.602c12 6.3984 21.602 16.801 26.398 29.602zm-243.2-11.602-17.602-20c10.398-9.1992 23.199-14 37.199-14v26.398c-7.1953 0.40234-13.996 2.8008-19.598 7.6016zm205.2-7.1992h-30.801v-26.398h30.801zm-62 0h-30.801v-26.398h30.801zm-61.602 0h-30.801v-26.398h30.801z"/>
  <path d="m894.8 722h-31.199v-26.398h30.801zm-62 0h-30.801v-26.398h30.801zm-62 0h-30.801v-26.398h30.801zm-62 0h-10.398c-8.8008 0-18-2-26-6.3984l12.398-23.602c4.3984 2.3984 8.8008 3.1992 13.602 3.1992h10.398zm223.2-14.398-17.602-19.602c5.1992-4.8008 8.8008-11.199 9.6016-18.398l26.398 3.1992c-1.5977 13.199-8 25.598-18.398 34.801zm-285.6-21.602c-2.3984-6.3984-3.6016-13.199-3.6016-20v-15.602h26.398v15.602c0 3.6016 0.80078 7.1992 2 10.398zm304.4-46h-26.801v-30.801h26.398v30.801zm-281.6-20.398h-26.398v-30.801h26.398zm281.6-41.602h-26.801v-30.801h26.398v30.801zm-281.6-20.398h-26.398v-30.801h26.398zm281.6-41.602h-26.801v-30.801h26.398v30.801zm-281.6-20.398h-26.398v-26c0-2 0-4.3984 0.39844-6.3984l26.398 3.1992v3.6016l0.003906 25.598zm252.8-36.402c-2.3984-6.8008-7.6016-12.398-14-15.602l12.398-23.602c12 6.3984 21.602 16.801 26.398 29.602zm-243.2-11.199-17.602-20c10.398-9.1992 23.199-14 37.199-14v26.398c-7.1992 0-14 2.8008-19.598 7.6016zm205.2-7.6016h-30.801v-26.398h30.801zm-61.602 0h-30.801v-26.398h30.801zm-62 0h-30.801v-26.398h30.801z"/>
  <path d="m1093.6 1117.6h-31.199v-26.398h30.801zm-62 0h-30.801v-26.398h30.801zm-62 0h-30.801v-26.398h30.801zm-62 0h-10.398c-8.8008 0-18-2-26-6.3984l12.398-23.602c4.3984 2.3984 8.8008 3.1992 13.602 3.1992h10.398zm223.2-14.402-17.602-19.602c5.1992-4.8008 8.8008-11.199 9.6016-18.398l26.398 3.1992c-2 13.203-8.3984 25.602-18.398 34.801zm-286-22c-2.3984-6.3984-3.6016-13.199-3.6016-20v-15.602h26.398v15.602c0 3.6016 0.80078 7.1992 2 10.398zm304.4-45.598h-26.398v-30.801h26.398zm-281.6-20.402h-26.398l-0.003906-31.199h26.398zm281.6-41.598h-26.398v-30.801h26.398zm-281.6-20.402h-26.398v-30.801h26.398zm281.6-41.598h-26.398v-30.801h26.398zm-281.6-20.402h-26.398v-26c0-2 0-4.3984 0.39844-6.3984l26.398 3.1992v3.6016 25.598zm253.2-36.398c-2.3984-6.8008-7.6016-12.398-14-15.602l12.398-23.602c12 6.3984 21.602 16.801 26.398 29.602zm-243.2-11.602-17.602-20c10.398-9.1992 23.199-14 37.199-14v26.398c-7.1992 0.40234-14.398 2.8008-19.598 7.6016zm205.2-7.1992h-30.801v-26.398h30.801zm-62 0h-30.801v-26.398h30.801zm-62 0h-30.801v-26.398h30.801z"/>
  <path d="m258.4 554.8v-140.8h-69.199v140.8h-91.199l126 126 126-126z"/>
 </g>
</svg>
