<?xml version="1.0" encoding="UTF-8"?>
<svg width="1200pt" height="1200pt" version="1.1" viewBox="0 0 1200 1200" xmlns="http://www.w3.org/2000/svg">
 <g fill="#df3584">
  <path d="m547.2 237.6v-207.6c-151.2 14.398-285.6 87.602-379.2 196.8l169.2 118.8c54-56.402 128.4-96 210-108z"/>
  <path d="m962.4 544.8h207.6c-25.199-272.4-242.4-489.6-514.8-514.8v207.6c158.4 22.797 284.4 148.8 307.2 307.2z"/>
  <path d="m235.2 598.8c0-58.801 14.398-115.2 39.602-164.4l-169.2-118.8c-48 84-75.602 180-75.602 283.2 0 230.4 136.8 428.4 333.6 519.6l68.398-195.6c-117.6-61.199-196.8-183.6-196.8-324z"/>
  <path d="m601.2 964.8c-22.801 0-45.602-2.3984-67.199-6l-67.199 194.4c43.199 10.801 88.801 16.801 135.6 16.801 297.6 0 541.2-226.8 568.8-517.2h-208.8c-25.199 176.4-177.6 312-361.2 312z"/>
  <path d="m403.2 654h79.199c8.3984 0 14.398-6 14.398-14.398l0.003906-135.6c0-8.3984-6-14.398-14.398-14.398h-79.199c-8.3984 0-14.398 6-14.398 14.398v134.4c-0.003907 8.4023 5.9961 15.602 14.395 15.602z"/>
  <path d="m547.2 639.6c0 8.3984 6 14.398 14.398 14.398h79.199c8.3984 0 14.398-6 14.398-14.398l0.003907-255.6c0-8.3984-6-14.398-14.398-14.398h-79.199c-8.3984 0-14.398 6-14.398 14.398z"/>
  <path d="m814.8 447.6c0-8.3984-6-14.398-14.398-14.398h-79.199c-8.3984 0-14.398 6-14.398 14.398v192c0 8.3984 6 14.398 14.398 14.398h79.199c8.3984 0 14.398-6 14.398-14.398z"/>
  <path d="m403.2 772.8h397.2c8.3984 0 14.398-6 14.398-14.398v-43.199c0-8.3984-6-14.398-14.398-14.398l-397.2-0.003907c-8.3984 0-14.398 6-14.398 14.398v43.199c0 8.4023 6 14.402 14.398 14.402z"/>
 </g>
</svg>
