<?xml version="1.0" encoding="UTF-8"?>
<svg width="1200pt" height="1200pt" version="1.1" viewBox="0 0 1200 1200" xmlns="http://www.w3.org/2000/svg">
 <g fill="#df3584">
  <path d="m114 766.8v-427.2h712.8v178.8c24-2.3984 46.801-2.3984 70.801-1.1992v-292.8c0-58.801-48-106.8-106.8-106.8h-76.801v-56.398c0-16.801-14.398-31.199-31.199-31.199h-78c-16.801 0-31.199 14.398-31.199 31.199v56.398l-206.4 0.003906v-56.402c0-16.801-14.398-31.199-31.199-31.199h-78c-16.801 0-31.199 14.398-31.199 31.199v56.398h-76.801c-58.801 0-106.8 48-106.8 106.8v542.4c0 58.801 48 106.8 106.8 106.8h355.2c0-24 2.3984-48 8.3984-70.801l-363.6 0.003906c-19.199-1.1992-36-16.801-36-36z"/>
  <path d="m624 428.4c-13.199 0-24 10.801-24 24v63.602c0 13.199 10.801 24 24 24h88.801c13.199 0 24-10.801 24-24v-64.801c0-13.199-10.801-24-24-24h-88.801z"/>
  <path d="m514.8 428.4h-88.801c-13.199 0-24 10.801-24 24v63.602c0 13.199 10.801 24 24 24h88.801c13.199 0 24-10.801 24-24v-64.801c0-13.199-10.801-22.801-24-22.801z"/>
  <path d="m514.8 603.6h-88.801c-13.199 0-24 10.801-24 24v64.801c0 13.199 10.801 24 24 24h88.801c13.199 0 24-10.801 24-24v-64.801c0-14.402-10.801-24-24-24z"/>
  <path d="m340.8 451.2c0-13.199-10.801-24-24-24h-88.801c-13.199 0-24 10.801-24 24v64.801c0 13.199 10.801 24 24 24h88.801c13.199 0 24-10.801 24-24z"/>
  <path d="m316.8 603.6h-88.801c-13.199 0-24 10.801-24 24v64.801c0 13.199 10.801 24 24 24h88.801c13.199 0 24-10.801 24-24v-64.801c0-14.402-10.801-24-24-24z"/>
  <path d="m1080 1075.2c49.199-54 76.801-122.4 76.801-196.8 0-78-30-150-85.199-205.2-55.203-55.199-127.2-85.199-205.2-85.199s-150 30-205.2 85.199c-55.199 54-85.199 127.2-85.199 205.2s30 150 85.199 205.2c43.199 43.199 97.199 70.801 157.2 80.398h6c16.801 0 32.398-12 34.801-30 3.6016-19.199-9.6016-37.199-28.801-40.801-44.398-7.1992-86.398-28.801-118.8-61.199-40.801-40.801-64.801-96-64.801-154.8 0-58.801 22.801-114 64.801-154.8 85.199-85.199 224.4-85.199 309.6 0 40.801 40.801 64.801 96 64.801 154.8 0 55.199-20.398 105.6-56.398 146.4l-33.602-32.395c-4.8008-4.8008-13.199-7.1992-19.199-4.8008-7.1992 2.3984-12 7.1992-13.199 14.398l-30 145.2c-1.1992 6 0 13.199 4.8008 18 4.8008 4.8008 10.801 6 18 4.8008l145.2-30c7.1992-1.1992 13.199-7.1992 14.398-13.199 2.3984-7.1992 0-15.602-4.8008-20.398z"/>
  <path d="m986.4 796.8c-14.398-14.398-36-14.398-50.398 0l-104.4 104.4-38.398-38.398c-14.398-14.398-36-14.398-50.398 0-14.398 14.398-14.398 36 0 50.398l63.602 63.602c7.1992 7.1992 15.602 10.801 25.199 10.801 9.6016 0 18-3.6016 25.199-10.801l129.6-129.6c13.195-14.398 13.195-36-0.007812-50.398z"/>
 </g>
</svg>
