<?xml version="1.0" encoding="UTF-8"?>
<svg width="1200pt" height="1200pt" version="1.1" viewBox="0 0 1200 1200" xmlns="http://www.w3.org/2000/svg">
 <path d="m562.32 0c-57.414 28.488-93.727 87.039-93.75 151.14 0 58.508 29.785 110.05 75 140.33v46.141h18.715c59.359 0 109.66 38.941 125.87 90.746l5.8945 2.9648 37.062 0.003907v-139.86c45.219-30.281 75.004-81.824 75.004-140.33-0.074219-64.043-36.387-122.53-93.754-150.99l0.14844 149.63-75.113 37.5-74.926-37.5zm-242.11 136.38c-6.4141-0.15234-13.23 0.65234-20.25 2.9688-18.723 6.1758-37.594 20.266-63.797 46.801-26.203 26.539-40.059 45.691-45.961 64.492-5.8945 18.797-0.99609 35.809 3.9922 47.934 4.9922 12.129 9.5703 21.262 10.805 35.414 1.2344 14.152-0.82812 34.137-13.551 65.477-4.7266 11.648-9.4023 20.82-13.988 28.641 26.066-6.6172 52.922-22.531 83.605-40.285 41.391-23.945 89.57-50.207 151.18-50.207h93.859v-28.746c-44.016-37.863-75.035-95.391-75.035-157.77 0-2.1133 0.050781-4.1953 0.14844-6.3008-20.992 7.082-35.98 8.7656-47.207 7.9844-14.281-0.98828-23.598-5.4961-35.855-10.254-7.6562-2.9727-17.219-5.8906-27.902-6.1523zm634.25 0c-10.688 0.26172-20.281 3.1797-27.941 6.1523-12.254 4.7578-21.574 9.2617-35.852 10.254-11.234 0.78125-26.211-0.89453-47.207-7.9844 0.066406 2.1016 0.14844 4.1875 0.14844 6.3008 0 56.184-25.242 108.21-62.402 145.68 103.57 52.336 171.07 157.44 174.83 274.37 3.9453 122.46-62.844 236.38-171.43 292.97-5.3633 18.953-18.121 34.805-34.828 44.531l0.14844 160.33c0.011719 16.516-3.5859 32.211-9.9961 46.363 1.3398-1.0625 2.7305-2.1172 3.7734-3.5898 23.156-32.867 5.6055-54.859 81.555-86.938 31.277-13.211 51.199-15.785 65.48-14.797 14.281 0.99219 23.598 5.4609 35.852 10.219 12.258 4.7539 29.469 9.3633 48.195 3.1875 18.723-6.1758 37.629-20.375 63.832-46.91 26.203-26.535 40.062-45.582 45.961-64.379 5.8945-18.797 0.96094-35.773-4.0273-47.902-4.9883-12.129-9.5664-21.297-10.805-35.449-1.2344-14.152 0.86328-34.137 13.586-65.48 12.727-31.344 25.055-47.18 35.816-56.469 10.762-9.2891 20.578-12.641 32.555-17.727 11.977-5.082 27.281-13.523 36.254-30.871 8.9492-17.324 12.316-40.305 12.008-76.871 0.28516-36.566-3.0938-59.477-12.047-76.793-8.9766-17.352-24.281-25.934-36.258-31.02-11.977-5.082-21.793-8.2891-32.555-17.578-10.762-9.2891-23.09-25.164-35.816-56.508-12.727-31.34-14.824-51.324-13.586-65.477 1.2344-14.152 5.8164-23.285 10.805-35.414 4.9883-12.129 9.9258-29.141 4.0273-47.938-5.9062-18.797-19.758-37.949-45.961-64.488-26.203-26.535-45.145-40.625-63.867-46.801-7.0234-2.3164-13.805-3.1211-20.215-2.9688zm-185.89 196.21v108.8c22.441 13.016 37.648 37.32 37.648 64.965 0 22.387-10.098 42.359-25.855 56.066 15.793 13.789 25.855 34.051 25.855 56.508 0 22.344-10.121 42.254-25.781 56.031 15.777 13.789 25.781 34.023 25.781 56.469 0 27.258-14.77 51.309-36.695 64.453 6.3125 7.4766 11.375 16.035 14.391 25.562 85.984-52.48 137.86-147.33 134.59-249.06-3.2734-101.59-60.953-192.89-149.93-239.79zm-356.33 42.52c-50.918 0-91.797 21.719-132.5 45.266-40.547 23.457-80.824 49.617-129.97 48.41v340.8c46.168 7.3164 75.73 27.293 115.32 45.375 47.52 21.703 115.37 43.348 259.83 44.973 0.058594-118.88-0.003906-229.46-0.14453-332.67-21.715 17.348-48.098 28.547-76.395 31.824-45.938 5.3203-91.902-10.754-124.33-43.727-7.3008-7.4023-7.1758-19.328 0.29297-26.586 7.3945-7.1953 19.207-7.0625 26.438 0.29297 24.34 24.746 58.727 36.77 93.203 32.773 33.023-3.8242 62.543-21.996 80.824-49.586v-5.8945c0.042969-10.359 8.4648-18.719 18.824-18.676 10.301 0.039062 18.637 8.375 18.676 18.676v65.59c0 26.297 20.605 46.984 46.914 46.984 26.305 0 46.984-20.688 46.984-46.984v-107.81c0-46.766-41.613-89.027-93.898-89.027zm-393.64 37.207c-10.277 0-18.605 8.3633-18.605 18.641v412.72c0 10.359 8.3945 18.75 18.75 18.75h74.855c10.355 0 18.75-8.3906 18.75-18.75v-412.72c0-10.277-8.3281-18.641-18.605-18.641zm675.08 56.508v75.035h37.5c21.102 0 37.5-16.395 37.5-37.5s-16.398-37.535-37.5-37.535zm-0.58594 112.54c-3.1484 28-20.102 51.992-43.875 64.895 6.6211 6.2773 15.512 10.18 25.602 10.18h56.324c21.102 0 37.539-16.398 37.539-37.5 0-21.105-16.434-37.574-37.539-37.574zm-130.63 60.828c0.027344 150.85 0.29297 339.01 0.29297 482.81-0.011719 41.848 33.141 75 75.039 75 41.895 0 74.879-33.16 74.855-75l-0.40234-206.11h-37.395c-41.23 0-75.039-33.805-75.039-75.035 0-22.348 10.117-42.219 25.781-55.957-15.758-13.785-25.781-34.043-25.781-56.469 0-22.395 9.9922-42.574 25.707-56.359-6.0625-5.3438-11.152-11.703-15.781-18.68-17.754 0.019531-33.848-5.2227-47.277-14.207zm112.36 51.746c-21.102 0-37.5 16.395-37.5 37.5 0 21.105 16.398 37.535 37.5 37.535h56.324c21.102 0 37.539-16.434 37.539-37.535 0-21.102-16.434-37.5-37.539-37.5zm0 112.57c-21.102 0-37.5 16.25-37.5 37.352s16.398 37.5 37.5 37.5h37.5c21.102 0 37.539-16.398 37.539-37.5s-16.434-37.352-37.539-37.352zm-480.04 55.738c-4.4492 10.289-8.8047 21.953-7.25 37.281 2.2617 22.348 16.449 44.418 48.598 76.977 26.203 26.535 45.109 40.734 63.832 46.91 18.723 6.1758 35.902 1.5703 48.156-3.1875 12.258-4.7539 21.574-9.2266 35.852-10.219 14.281-0.99219 34.203 1.5859 65.48 14.797 76.16 32.168 58.234 54.113 81.703 87.047 0.98438 0.76172 2.0352 1.4219 3.1484 1.9766-6.0156-13.766-9.3789-28.918-9.375-44.859 0.003906-43.859 0-87.727 0-131.58-148.65-1.6914-224.05-24.832-275.36-48.266-21.773-9.9453-38.48-19.27-54.789-26.883zm442.57 225.26c10.328-0.003906 18.703 8.3711 18.715 18.715-0.007812 10.344-8.3828 18.754-18.715 18.75-10.328 0.003906-18.703-8.4062-18.715-18.75 0.007812-10.344 8.3828-18.719 18.715-18.715z" fill="#de3484"/>
</svg>
